<svg xmlns="http://www.w3.org/2000/svg" xmlns:xlink="http://www.w3.org/1999/xlink" width="317.031" height="108.54" viewBox="0 0 317.031 108.54">
  <defs>
    <clipPath id="clip-path">
      <path id="Path_2376" data-name="Path 2376" d="M292.451,0l21.226,41.121L292.451,86.54H92.436L0,43.27,92.436,0Z" transform="translate(0 0)" fill="rgba(255,179,0,0.62)"/>
    </clipPath>
  </defs>
  <g id="Group_1566" data-name="Group 1566" transform="translate(-810.283 -649.23)">
    <g id="Group_1565" data-name="Group 1565">
      <g id="Path_2375" data-name="Path 2375" transform="translate(798.902 660.229)" fill="#ffc62c" stroke-linecap="round" stroke-linejoin="round">
        <path d="M 46.69965362548828 92.04039001464844 L 43.41161346435547 92.04039001464844 L 41.85503005981445 89.14414215087891 L 18.59923934936523 45.87385177612305 L 17.19982147216797 43.27009963989258 L 18.59923934936523 40.66630935668945 L 41.85507202148438 -2.603607416152954 L 43.41169738769531 -5.499815940856934 L 46.6996955871582 -5.499815940856934 L 296.61279296875 -5.499815940856934 L 300.0714416503906 -5.499815940856934 L 301.56982421875 -2.38256573677063 L 322.3687744140625 40.88735198974609 L 323.9839782714844 44.24760055541992 L 321.6418151855469 46.79542541503906 L 301.5780029296875 88.90593719482422 L 300.0846557617188 92.04022216796875 L 296.61279296875 92.04022216796875 L 46.69965362548828 92.04039001464844 Z" stroke="none"/>
        <path d="M 46.69967651367188 0.0001678466796875 L 23.44381713867188 43.27011871337891 L 46.69967651367188 86.54036712646484 L 296.61279296875 86.54021453857422 L 317.0326232910156 43.68251800537109 L 317.4117431640625 43.27011871337891 L 296.61279296875 0.0001678466796875 L 46.69967651367188 0.0001678466796875 M 46.69967651367188 -10.99983215332031 L 296.61279296875 -10.99983215332031 C 300.841064453125 -10.99983215332031 304.695068359375 -8.57623291015625 306.5269165039062 -4.765335083007812 L 327.3258666992188 38.50461578369141 C 329.0757446289062 42.14502716064453 328.6770324707031 46.41218566894531 326.3765258789062 49.64503860473633 L 306.5432434082031 91.27166748046875 C 304.7186279296875 95.10111999511719 300.854736328125 97.54021453857422 296.61279296875 97.54021453857422 L 46.69967651367188 97.54036712646484 C 42.64987182617188 97.54036712646484 38.92764282226562 95.31511688232422 37.01043701171875 91.74791717529297 L 13.75457763671875 48.47766876220703 C 12.00692749023438 45.22591781616211 12.00692749023438 41.31431579589844 13.75457763671875 38.06256866455078 L 37.01043701171875 -5.207382202148438 C 38.92767333984375 -8.774581909179688 42.64993286132812 -10.99983215332031 46.69967651367188 -10.99983215332031 Z" stroke="none" fill="#ffa700"/>
      </g>
      <g id="Mask_Group_36" data-name="Mask Group 36" transform="translate(810.283 660.229)" clip-path="url(#clip-path)">
        <path id="Path_1278" data-name="Path 1278" d="M114.856-24.652c48.629,0,62.045,56.494,62.045,82.055,0,11.17,17.932,68.72-17.193,75.021C115.546,140.345,5.6,83.779,5.6,83.779S-5.16,68.436,3.152,44.569,66.227-24.652,114.856-24.652Z" transform="translate(146.947 3.283)" fill="rgba(255,179,0,0.62)"/>
      </g>
    </g>
    <g id="Group_1563" data-name="Group 1563" transform="translate(-158.081)">
      <text id="Back" transform="translate(1140.808 713.53)" fill="#795303" stroke="#795303" stroke-width="1" font-size="32" font-family="DMSans-Bold, DM Sans" font-weight="700"><tspan x="-38.016" y="0">Back</tspan></text>
      <g id="arrow_back_icon_151627" transform="translate(1057.121 681.721)">
        <path id="Path_2373" data-name="Path 2373" d="M0,0H43.558V43.558H0Z" fill="none"/>
        <path id="Path_2374" data-name="Path 2374" d="M12.26,14.26,5,21.519l7.26,7.26M5,21.519H24.964A7.26,7.26,0,1,0,24.964,7H23.149" transform="translate(4.075 5.704)" fill="none" stroke="#795303" stroke-linecap="round" stroke-linejoin="round" stroke-width="7"/>
      </g>
    </g>
  </g>
</svg>
