<svg xmlns="http://www.w3.org/2000/svg" width="431.883" height="21.959" viewBox="0 0 431.883 21.959"><path d="M431.215,14.825c.012,6.951-7.694,2.96-16.665,3.032-24.581.2-77.211-3.511-135.863-5.79-3.42-.133-38.993,1.472-94.867,4.224S51.344,24.343,55.191,23.075c2.826-.931,64.091-10.167,114.745-14.143,52.511-4.122,94.424-2.971,93.908-2.987-11.152-.342-22.369-.58-33.424-.674-64.2-.541-121.444,9.681-141.4,9.681-34.659,0-64.656,3.9-79.626,4.668-5.855.3-9.628,1.459-10-1.307S-2.4,9.856,89.016,5.272C128.692,3.283,199.45.037,265.538,1.832c64.049,1.739,150.387,9.009,150.521,9.026C416.987,11.166,431.2,7.874,431.215,14.825Z" transform="translate(0.668 -1.309)" fill="#543700"/></svg>