<svg xmlns="http://www.w3.org/2000/svg" xmlns:xlink="http://www.w3.org/1999/xlink" width="627.861" height="491.095" viewBox="0 0 627.861 491.095"><defs><clipPath id="a"><path d="M65.342,0,87.123,36.548,65.342,73.1H21.781L0,36.548,21.781,0Z" transform="translate(0)" fill="#ffc62a"/></clipPath><clipPath id="b"><path d="M65.342,0,87.123,36.548,65.342,73.1H21.781L0,36.548,21.781,0Z" transform="translate(0)" fill="rgba(255,179,0,0.62)"/></clipPath></defs><g transform="translate(14918.441 12746.044)"><g transform="translate(-14735.195 -12637.044)"><g transform="translate(0 0)" fill="#ffc62c" stroke-linecap="round" stroke-linejoin="round"><path d="M 67.89897155761719 77.59506988525391 L 65.34226226806641 77.59506988525391 L 21.78075790405273 77.59506988525391 L 19.22405052185059 77.59506988525391 L 17.91515731811523 75.39879608154297 L -3.865595817565918 38.85125732421875 L -5.238518714904785 36.54753494262695 L -3.865595817565918 34.24381256103516 L 17.91515731811523 -2.303726673126221 L 19.22405052185059 -4.500003337860107 L 21.78075790405273 -4.500003337860107 L 65.34226226806641 -4.500003337860107 L 67.89897155761719 -4.500003337860107 L 69.20786285400391 -2.303726673126221 L 90.98861694335938 34.24381256103516 L 92.36154174804688 36.54753494262695 L 90.98861694335938 38.85125732421875 L 69.20786285400391 75.39879608154297 L 67.89897155761719 77.59506988525391 Z" stroke="none"/><path d="M 21.78075408935547 -7.62939453125e-06 L -7.62939453125e-06 36.54753494262695 L 21.78075408935547 73.09507751464844 L 65.34225463867188 73.09507751464844 L 87.12300872802734 36.54753494262695 L 65.34225463867188 -7.62939453125e-06 L 21.78075408935547 -7.62939453125e-06 M 21.78075408935547 -9.000007629394531 L 65.34225463867188 -9.000007629394531 C 68.51316833496094 -9.000007629394531 71.45013427734375 -7.331344604492188 73.07345581054688 -4.607467651367188 L 94.85420989990234 31.9400749206543 C 96.54595184326172 34.77877426147461 96.54595184326172 38.3162956237793 94.85420989990234 41.15499496459961 L 73.07345581054688 77.70253753662109 C 71.45013427734375 80.42641448974609 68.51316833496094 82.09507751464844 65.34225463867188 82.09507751464844 L 21.78075408935547 82.09507751464844 C 18.60983276367188 82.09507751464844 15.67287445068359 80.42641448974609 14.04955291748047 77.70253753662109 L -7.731208801269531 41.15499496459961 C -9.422950744628906 38.3162956237793 -9.422950744628906 34.77877426147461 -7.731208801269531 31.9400749206543 L 14.04955291748047 -4.607467651367188 C 15.67287445068359 -7.331344604492188 18.60983276367188 -9.000007629394531 21.78075408935547 -9.000007629394531 Z" stroke="none" fill="#ffa700"/></g><g transform="translate(0 0)" clip-path="url(#a)"><path d="M40.2,0C60.668,0,70.156,14.4,70.156,35.989c0,9.435-6.119,29.452-20.9,34.774-18.583,6.691-46.9,0-46.9,0S-2.171,57.8,1.326,37.645,19.741,0,40.2,0Z" transform="translate(21.046 2.773)" fill="#ffc62a"/></g><g transform="translate(0 0)" clip-path="url(#b)"><path d="M40.2,0C60.668,0,70.156,14.4,70.156,35.989c0,9.435-6.119,29.452-20.9,34.774-18.583,6.691-46.9,0-46.9,0S-2.171,57.8,1.326,37.645,19.741,0,40.2,0Z" transform="translate(21.046 2.773)" fill="rgba(255,179,0,0.62)"/></g></g><g transform="translate(-14735.195 -12537.044)"><g transform="translate(0 0)" fill="#ffc62c" stroke-linecap="round" stroke-linejoin="round"><path d="M 67.89897155761719 77.59506988525391 L 65.34226226806641 77.59506988525391 L 21.78075790405273 77.59506988525391 L 19.22405052185059 77.59506988525391 L 17.91515731811523 75.39879608154297 L -3.865595817565918 38.85125732421875 L -5.238518714904785 36.54753494262695 L -3.865595817565918 34.24381256103516 L 17.91515731811523 -2.303726673126221 L 19.22405052185059 -4.500003337860107 L 21.78075790405273 -4.500003337860107 L 65.34226226806641 -4.500003337860107 L 67.89897155761719 -4.500003337860107 L 69.20786285400391 -2.303726673126221 L 90.98861694335938 34.24381256103516 L 92.36154174804688 36.54753494262695 L 90.98861694335938 38.85125732421875 L 69.20786285400391 75.39879608154297 L 67.89897155761719 77.59506988525391 Z" stroke="none"/><path d="M 21.78075408935547 -7.62939453125e-06 L -7.62939453125e-06 36.54753494262695 L 21.78075408935547 73.09507751464844 L 65.34226989746094 73.09507751464844 L 87.12300872802734 36.54753494262695 L 65.34226989746094 -7.62939453125e-06 L 21.78075408935547 -7.62939453125e-06 M 21.78075408935547 -9.000007629394531 L 65.34226989746094 -9.000007629394531 C 68.51319122314453 -9.000007629394531 71.45014953613281 -7.331344604492188 73.07347106933594 -4.607467651367188 L 94.85420989990234 31.9400749206543 C 96.54595184326172 34.77877426147461 96.54595184326172 38.3162956237793 94.85420989990234 41.15499496459961 L 73.07347106933594 77.70253753662109 C 71.45014953613281 80.42641448974609 68.51319122314453 82.09507751464844 65.34226989746094 82.09507751464844 L 21.78075408935547 82.09507751464844 C 18.60983276367188 82.09507751464844 15.67287445068359 80.42641448974609 14.04955291748047 77.70253753662109 L -7.731208801269531 41.15499496459961 C -9.422950744628906 38.3162956237793 -9.422950744628906 34.77877426147461 -7.731208801269531 31.9400749206543 L 14.04955291748047 -4.607467651367188 C 15.67287445068359 -7.331344604492188 18.60983276367188 -9.000007629394531 21.78075408935547 -9.000007629394531 Z" stroke="none" fill="#ffa700"/></g><g transform="translate(0 0)" clip-path="url(#a)"><path d="M40.2,0C60.668,0,70.156,14.4,70.156,35.989c0,9.435-6.119,29.452-20.9,34.774-18.583,6.691-46.9,0-46.9,0S-2.171,57.8,1.326,37.645,19.741,0,40.2,0Z" transform="translate(21.046 2.773)" fill="#ffc62a"/></g><g transform="translate(0 0)" clip-path="url(#b)"><path d="M40.2,0C60.668,0,70.156,14.4,70.156,35.989c0,9.435-6.119,29.452-20.9,34.774-18.583,6.691-46.9,0-46.9,0S-2.171,57.8,1.326,37.645,19.741,0,40.2,0Z" transform="translate(21.046 2.773)" fill="rgba(255,179,0,0.62)"/></g></g><g transform="translate(-14735.195 -12437.044)"><g transform="translate(0 0)" fill="#ffc62c" stroke-linecap="round" stroke-linejoin="round"><path d="M 67.89897155761719 77.59506988525391 L 65.34226226806641 77.59506988525391 L 21.78075790405273 77.59506988525391 L 19.22405052185059 77.59506988525391 L 17.91515731811523 75.39879608154297 L -3.865595817565918 38.85125732421875 L -5.238518714904785 36.54753494262695 L -3.865595817565918 34.24381256103516 L 17.91515731811523 -2.303726673126221 L 19.22405052185059 -4.500003337860107 L 21.78075790405273 -4.500003337860107 L 65.34226226806641 -4.500003337860107 L 67.89897155761719 -4.500003337860107 L 69.20786285400391 -2.303726673126221 L 90.98861694335938 34.24381256103516 L 92.36154174804688 36.54753494262695 L 90.98861694335938 38.85125732421875 L 69.20786285400391 75.39879608154297 L 67.89897155761719 77.59506988525391 Z" stroke="none"/><path d="M 21.78075408935547 -7.62939453125e-06 L -7.62939453125e-06 36.54753494262695 L 21.78075408935547 73.09507751464844 L 65.34226989746094 73.09507751464844 L 87.12300872802734 36.54753494262695 L 65.34226989746094 -7.62939453125e-06 L 21.78075408935547 -7.62939453125e-06 M 21.78075408935547 -9.000007629394531 L 65.34226989746094 -9.000007629394531 C 68.51319122314453 -9.000007629394531 71.45014953613281 -7.331344604492188 73.07347106933594 -4.607467651367188 L 94.85420989990234 31.9400749206543 C 96.54595184326172 34.77877426147461 96.54595184326172 38.3162956237793 94.85420989990234 41.15499496459961 L 73.07347106933594 77.70253753662109 C 71.45014953613281 80.42641448974609 68.51319122314453 82.09507751464844 65.34226989746094 82.09507751464844 L 21.78075408935547 82.09507751464844 C 18.60983276367188 82.09507751464844 15.67287445068359 80.42641448974609 14.04955291748047 77.70253753662109 L -7.731208801269531 41.15499496459961 C -9.422950744628906 38.3162956237793 -9.422950744628906 34.77877426147461 -7.731208801269531 31.9400749206543 L 14.04955291748047 -4.607467651367188 C 15.67287445068359 -7.331344604492188 18.60983276367188 -9.000007629394531 21.78075408935547 -9.000007629394531 Z" stroke="none" fill="#ffa700"/></g><g transform="translate(0 0)" clip-path="url(#a)"><path d="M40.2,0C60.668,0,70.156,14.4,70.156,35.989c0,9.435-6.119,29.452-20.9,34.774-18.583,6.691-46.9,0-46.9,0S-2.171,57.8,1.326,37.645,19.741,0,40.2,0Z" transform="translate(21.046 2.773)" fill="#ffc62a"/></g><g transform="translate(0 0)" clip-path="url(#b)"><path d="M40.2,0C60.668,0,70.156,14.4,70.156,35.989c0,9.435-6.119,29.452-20.9,34.774-18.583,6.691-46.9,0-46.9,0S-2.171,57.8,1.326,37.645,19.741,0,40.2,0Z" transform="translate(21.046 2.773)" fill="rgba(255,179,0,0.62)"/></g></g><g transform="translate(-14735.195 -12337.044)"><g transform="translate(0 0)" fill="#ffc62c" stroke-linecap="round" stroke-linejoin="round"><path d="M 67.89897155761719 77.59506988525391 L 65.34226226806641 77.59506988525391 L 21.78075790405273 77.59506988525391 L 19.22405052185059 77.59506988525391 L 17.91515731811523 75.39879608154297 L -3.865595817565918 38.85125732421875 L -5.238518714904785 36.54753494262695 L -3.865595817565918 34.24381256103516 L 17.91515731811523 -2.303726673126221 L 19.22405052185059 -4.500003337860107 L 21.78075790405273 -4.500003337860107 L 65.34226226806641 -4.500003337860107 L 67.89897155761719 -4.500003337860107 L 69.20786285400391 -2.303726673126221 L 90.98861694335938 34.24381256103516 L 92.36154174804688 36.54753494262695 L 90.98861694335938 38.85125732421875 L 69.20786285400391 75.39879608154297 L 67.89897155761719 77.59506988525391 Z" stroke="none"/><path d="M 21.78075408935547 -7.62939453125e-06 L -7.62939453125e-06 36.54753494262695 L 21.78075408935547 73.09507751464844 L 65.34226989746094 73.09507751464844 L 87.12300872802734 36.54753494262695 L 65.34226989746094 -7.62939453125e-06 L 21.78075408935547 -7.62939453125e-06 M 21.78075408935547 -9.000007629394531 L 65.34226989746094 -9.000007629394531 C 68.51319122314453 -9.000007629394531 71.45014953613281 -7.331344604492188 73.07347106933594 -4.607467651367188 L 94.85420989990234 31.9400749206543 C 96.54595184326172 34.77877426147461 96.54595184326172 38.3162956237793 94.85420989990234 41.15499496459961 L 73.07347106933594 77.70253753662109 C 71.45014953613281 80.42641448974609 68.51319122314453 82.09507751464844 65.34226989746094 82.09507751464844 L 21.78075408935547 82.09507751464844 C 18.60983276367188 82.09507751464844 15.67287445068359 80.42641448974609 14.04955291748047 77.70253753662109 L -7.731208801269531 41.15499496459961 C -9.422950744628906 38.3162956237793 -9.422950744628906 34.77877426147461 -7.731208801269531 31.9400749206543 L 14.04955291748047 -4.607467651367188 C 15.67287445068359 -7.331344604492188 18.60983276367188 -9.000007629394531 21.78075408935547 -9.000007629394531 Z" stroke="none" fill="#ffa700"/></g><g transform="translate(0 0)" clip-path="url(#a)"><path d="M40.2,0C60.668,0,70.156,14.4,70.156,35.989c0,9.435-6.119,29.452-20.9,34.774-18.583,6.691-46.9,0-46.9,0S-2.171,57.8,1.326,37.645,19.741,0,40.2,0Z" transform="translate(21.046 2.773)" fill="#ffc62a"/></g><g transform="translate(0 0)" clip-path="url(#b)"><path d="M40.2,0C60.668,0,70.156,14.4,70.156,35.989c0,9.435-6.119,29.452-20.9,34.774-18.583,6.691-46.9,0-46.9,0S-2.171,57.8,1.326,37.645,19.741,0,40.2,0Z" transform="translate(21.046 2.773)" fill="rgba(255,179,0,0.62)"/></g></g><g transform="translate(-14822.318 -12687.044)"><g transform="translate(0 0)" fill="#ffc62c" stroke-linecap="round" stroke-linejoin="round"><path d="M 67.89897155761719 77.59506988525391 L 65.34226226806641 77.59506988525391 L 21.78075790405273 77.59506988525391 L 19.22405052185059 77.59506988525391 L 17.91515731811523 75.39879608154297 L -3.865595817565918 38.85125732421875 L -5.238518714904785 36.54753494262695 L -3.865595817565918 34.24381256103516 L 17.91515731811523 -2.303726673126221 L 19.22405052185059 -4.500003337860107 L 21.78075790405273 -4.500003337860107 L 65.34226226806641 -4.500003337860107 L 67.89897155761719 -4.500003337860107 L 69.20786285400391 -2.303726673126221 L 90.98861694335938 34.24381256103516 L 92.36154174804688 36.54753494262695 L 90.98861694335938 38.85125732421875 L 69.20786285400391 75.39879608154297 L 67.89897155761719 77.59506988525391 Z" stroke="none"/><path d="M 21.78075408935547 -7.62939453125e-06 L -7.62939453125e-06 36.54753494262695 L 21.78075408935547 73.09507751464844 L 65.34226989746094 73.09507751464844 L 87.12300872802734 36.54753494262695 L 65.34226989746094 -7.62939453125e-06 L 21.78075408935547 -7.62939453125e-06 M 21.78075408935547 -9.000007629394531 L 65.34226989746094 -9.000007629394531 C 68.51319122314453 -9.000007629394531 71.45014953613281 -7.331344604492188 73.07347106933594 -4.607467651367188 L 94.85420989990234 31.9400749206543 C 96.54595184326172 34.77877426147461 96.54595184326172 38.3162956237793 94.85420989990234 41.15499496459961 L 73.07347106933594 77.70253753662109 C 71.45014953613281 80.42641448974609 68.51319122314453 82.09507751464844 65.34226989746094 82.09507751464844 L 21.78075408935547 82.09507751464844 C 18.60983276367188 82.09507751464844 15.67287445068359 80.42641448974609 14.04955291748047 77.70253753662109 L -7.731208801269531 41.15499496459961 C -9.422950744628906 38.3162956237793 -9.422950744628906 34.77877426147461 -7.731208801269531 31.9400749206543 L 14.04955291748047 -4.607467651367188 C 15.67287445068359 -7.331344604492188 18.60983276367188 -9.000007629394531 21.78075408935547 -9.000007629394531 Z" stroke="none" fill="#ffa700"/></g><g transform="translate(0 0)" clip-path="url(#a)"><path d="M40.2,0C60.668,0,70.156,14.4,70.156,35.989c0,9.435-6.119,29.452-20.9,34.774-18.583,6.691-46.9,0-46.9,0S-2.171,57.8,1.326,37.645,19.741,0,40.2,0Z" transform="translate(21.046 2.773)" fill="#ffc62a"/></g><g transform="translate(0 0)" clip-path="url(#b)"><path d="M40.2,0C60.668,0,70.156,14.4,70.156,35.989c0,9.435-6.119,29.452-20.9,34.774-18.583,6.691-46.9,0-46.9,0S-2.171,57.8,1.326,37.645,19.741,0,40.2,0Z" transform="translate(21.046 2.773)" fill="rgba(255,179,0,0.62)"/></g></g><g transform="translate(-14822.318 -12587.044)"><g transform="translate(0 0)" fill="#ffc62c" stroke-linecap="round" stroke-linejoin="round"><path d="M 67.89897155761719 77.59506988525391 L 65.34226226806641 77.59506988525391 L 21.78075790405273 77.59506988525391 L 19.22405052185059 77.59506988525391 L 17.91515731811523 75.39879608154297 L -3.865595817565918 38.85125732421875 L -5.238518714904785 36.54753494262695 L -3.865595817565918 34.24381256103516 L 17.91515731811523 -2.303726673126221 L 19.22405052185059 -4.500003337860107 L 21.78075790405273 -4.500003337860107 L 65.34226226806641 -4.500003337860107 L 67.89897155761719 -4.500003337860107 L 69.20786285400391 -2.303726673126221 L 90.98861694335938 34.24381256103516 L 92.36154174804688 36.54753494262695 L 90.98861694335938 38.85125732421875 L 69.20786285400391 75.39879608154297 L 67.89897155761719 77.59506988525391 Z" stroke="none"/><path d="M 21.78075408935547 -7.62939453125e-06 L -7.62939453125e-06 36.54753494262695 L 21.78075408935547 73.09507751464844 L 65.34226989746094 73.09507751464844 L 87.12300872802734 36.54753494262695 L 65.34226989746094 -7.62939453125e-06 L 21.78075408935547 -7.62939453125e-06 M 21.78075408935547 -9.000007629394531 L 65.34226989746094 -9.000007629394531 C 68.51319122314453 -9.000007629394531 71.45014953613281 -7.331344604492188 73.07347106933594 -4.607467651367188 L 94.85420989990234 31.9400749206543 C 96.54595184326172 34.77877426147461 96.54595184326172 38.3162956237793 94.85420989990234 41.15499496459961 L 73.07347106933594 77.70253753662109 C 71.45014953613281 80.42641448974609 68.51319122314453 82.09507751464844 65.34226989746094 82.09507751464844 L 21.78075408935547 82.09507751464844 C 18.60983276367188 82.09507751464844 15.67287445068359 80.42641448974609 14.04955291748047 77.70253753662109 L -7.731208801269531 41.15499496459961 C -9.422950744628906 38.3162956237793 -9.422950744628906 34.77877426147461 -7.731208801269531 31.9400749206543 L 14.04955291748047 -4.607467651367188 C 15.67287445068359 -7.331344604492188 18.60983276367188 -9.000007629394531 21.78075408935547 -9.000007629394531 Z" stroke="none" fill="#ffa700"/></g><g transform="translate(0 0)" clip-path="url(#a)"><path d="M40.2,0C60.668,0,70.156,14.4,70.156,35.989c0,9.435-6.119,29.452-20.9,34.774-18.583,6.691-46.9,0-46.9,0S-2.171,57.8,1.326,37.645,19.741,0,40.2,0Z" transform="translate(21.046 2.773)" fill="#ffc62a"/></g><g transform="translate(0 0)" clip-path="url(#b)"><path d="M40.2,0C60.668,0,70.156,14.4,70.156,35.989c0,9.435-6.119,29.452-20.9,34.774-18.583,6.691-46.9,0-46.9,0S-2.171,57.8,1.326,37.645,19.741,0,40.2,0Z" transform="translate(21.046 2.773)" fill="rgba(255,179,0,0.62)"/></g></g><g transform="translate(-14822.318 -12487.044)"><g transform="translate(0 0)" fill="#ffc62c" stroke-linecap="round" stroke-linejoin="round"><path d="M 67.89897155761719 77.59506988525391 L 65.34226226806641 77.59506988525391 L 21.78075790405273 77.59506988525391 L 19.22405052185059 77.59506988525391 L 17.91515731811523 75.39879608154297 L -3.865595817565918 38.85125732421875 L -5.238518714904785 36.54753494262695 L -3.865595817565918 34.24381256103516 L 17.91515731811523 -2.303726673126221 L 19.22405052185059 -4.500003337860107 L 21.78075790405273 -4.500003337860107 L 65.34226226806641 -4.500003337860107 L 67.89897155761719 -4.500003337860107 L 69.20786285400391 -2.303726673126221 L 90.98861694335938 34.24381256103516 L 92.36154174804688 36.54753494262695 L 90.98861694335938 38.85125732421875 L 69.20786285400391 75.39879608154297 L 67.89897155761719 77.59506988525391 Z" stroke="none"/><path d="M 21.78075408935547 -7.62939453125e-06 L -7.62939453125e-06 36.54753494262695 L 21.78075408935547 73.09507751464844 L 65.34226989746094 73.09507751464844 L 87.12300872802734 36.54753494262695 L 65.34226989746094 -7.62939453125e-06 L 21.78075408935547 -7.62939453125e-06 M 21.78075408935547 -9.000007629394531 L 65.34226989746094 -9.000007629394531 C 68.51319122314453 -9.000007629394531 71.45014953613281 -7.331344604492188 73.07347106933594 -4.607467651367188 L 94.85420989990234 31.9400749206543 C 96.54595184326172 34.77877426147461 96.54595184326172 38.3162956237793 94.85420989990234 41.15499496459961 L 73.07347106933594 77.70253753662109 C 71.45014953613281 80.42641448974609 68.51319122314453 82.09507751464844 65.34226989746094 82.09507751464844 L 21.78075408935547 82.09507751464844 C 18.60983276367188 82.09507751464844 15.67287445068359 80.42641448974609 14.04955291748047 77.70253753662109 L -7.731208801269531 41.15499496459961 C -9.422950744628906 38.3162956237793 -9.422950744628906 34.77877426147461 -7.731208801269531 31.9400749206543 L 14.04955291748047 -4.607467651367188 C 15.67287445068359 -7.331344604492188 18.60983276367188 -9.000007629394531 21.78075408935547 -9.000007629394531 Z" stroke="none" fill="#ffa700"/></g><g transform="translate(0 0)" clip-path="url(#a)"><path d="M40.2,0C60.668,0,70.156,14.4,70.156,35.989c0,9.435-6.119,29.452-20.9,34.774-18.583,6.691-46.9,0-46.9,0S-2.171,57.8,1.326,37.645,19.741,0,40.2,0Z" transform="translate(21.046 2.773)" fill="#ffc62a"/></g><g transform="translate(0 0)" clip-path="url(#b)"><path d="M40.2,0C60.668,0,70.156,14.4,70.156,35.989c0,9.435-6.119,29.452-20.9,34.774-18.583,6.691-46.9,0-46.9,0S-2.171,57.8,1.326,37.645,19.741,0,40.2,0Z" transform="translate(21.046 2.773)" fill="rgba(255,179,0,0.62)"/></g></g><g transform="translate(-14822.318 -12387.044)"><g transform="translate(0 0)" fill="#ffc62c" stroke-linecap="round" stroke-linejoin="round"><path d="M 67.89897155761719 77.59506988525391 L 65.34226226806641 77.59506988525391 L 21.78075790405273 77.59506988525391 L 19.22405052185059 77.59506988525391 L 17.91515731811523 75.39879608154297 L -3.865595817565918 38.85125732421875 L -5.238518714904785 36.54753494262695 L -3.865595817565918 34.24381256103516 L 17.91515731811523 -2.303726673126221 L 19.22405052185059 -4.500003337860107 L 21.78075790405273 -4.500003337860107 L 65.34226226806641 -4.500003337860107 L 67.89897155761719 -4.500003337860107 L 69.20786285400391 -2.303726673126221 L 90.98861694335938 34.24381256103516 L 92.36154174804688 36.54753494262695 L 90.98861694335938 38.85125732421875 L 69.20786285400391 75.39879608154297 L 67.89897155761719 77.59506988525391 Z" stroke="none"/><path d="M 21.78075408935547 -7.62939453125e-06 L -7.62939453125e-06 36.54753494262695 L 21.78075408935547 73.09507751464844 L 65.34226989746094 73.09507751464844 L 87.12300872802734 36.54753494262695 L 65.34226989746094 -7.62939453125e-06 L 21.78075408935547 -7.62939453125e-06 M 21.78075408935547 -9.000007629394531 L 65.34226989746094 -9.000007629394531 C 68.51319122314453 -9.000007629394531 71.45014953613281 -7.331344604492188 73.07347106933594 -4.607467651367188 L 94.85420989990234 31.9400749206543 C 96.54595184326172 34.77877426147461 96.54595184326172 38.3162956237793 94.85420989990234 41.15499496459961 L 73.07347106933594 77.70253753662109 C 71.45014953613281 80.42641448974609 68.51319122314453 82.09507751464844 65.34226989746094 82.09507751464844 L 21.78075408935547 82.09507751464844 C 18.60983276367188 82.09507751464844 15.67287445068359 80.42641448974609 14.04955291748047 77.70253753662109 L -7.731208801269531 41.15499496459961 C -9.422950744628906 38.3162956237793 -9.422950744628906 34.77877426147461 -7.731208801269531 31.9400749206543 L 14.04955291748047 -4.607467651367188 C 15.67287445068359 -7.331344604492188 18.60983276367188 -9.000007629394531 21.78075408935547 -9.000007629394531 Z" stroke="none" fill="#ffa700"/></g><g transform="translate(0 0)" clip-path="url(#a)"><path d="M40.2,0C60.668,0,70.156,14.4,70.156,35.989c0,9.435-6.119,29.452-20.9,34.774-18.583,6.691-46.9,0-46.9,0S-2.171,57.8,1.326,37.645,19.741,0,40.2,0Z" transform="translate(21.046 2.773)" fill="#ffc62a"/></g><g transform="translate(0 0)" clip-path="url(#b)"><path d="M40.2,0C60.668,0,70.156,14.4,70.156,35.989c0,9.435-6.119,29.452-20.9,34.774-18.583,6.691-46.9,0-46.9,0S-2.171,57.8,1.326,37.645,19.741,0,40.2,0Z" transform="translate(21.046 2.773)" fill="rgba(255,179,0,0.62)"/></g></g><g transform="translate(-14648.072 -12687.044)"><g transform="translate(0 0)" fill="#ffc62c" stroke-linecap="round" stroke-linejoin="round"><path d="M 67.89897155761719 77.59506988525391 L 65.34226226806641 77.59506988525391 L 21.78075790405273 77.59506988525391 L 19.22405052185059 77.59506988525391 L 17.91515731811523 75.39879608154297 L -3.865595817565918 38.85125732421875 L -5.238518714904785 36.54753494262695 L -3.865595817565918 34.24381256103516 L 17.91515731811523 -2.303726673126221 L 19.22405052185059 -4.500003337860107 L 21.78075790405273 -4.500003337860107 L 65.34226226806641 -4.500003337860107 L 67.89897155761719 -4.500003337860107 L 69.20786285400391 -2.303726673126221 L 90.98861694335938 34.24381256103516 L 92.36154174804688 36.54753494262695 L 90.98861694335938 38.85125732421875 L 69.20786285400391 75.39879608154297 L 67.89897155761719 77.59506988525391 Z" stroke="none"/><path d="M 21.78075408935547 -7.62939453125e-06 L -7.62939453125e-06 36.54753494262695 L 21.78075408935547 73.09507751464844 L 65.34226989746094 73.09507751464844 L 87.12300872802734 36.54753494262695 L 65.34226989746094 -7.62939453125e-06 L 21.78075408935547 -7.62939453125e-06 M 21.78075408935547 -9.000007629394531 L 65.34226989746094 -9.000007629394531 C 68.51319122314453 -9.000007629394531 71.45014953613281 -7.331344604492188 73.07347106933594 -4.607467651367188 L 94.85420989990234 31.9400749206543 C 96.54595184326172 34.77877426147461 96.54595184326172 38.3162956237793 94.85420989990234 41.15499496459961 L 73.07347106933594 77.70253753662109 C 71.45014953613281 80.42641448974609 68.51319122314453 82.09507751464844 65.34226989746094 82.09507751464844 L 21.78075408935547 82.09507751464844 C 18.60983276367188 82.09507751464844 15.67287445068359 80.42641448974609 14.04955291748047 77.70253753662109 L -7.731208801269531 41.15499496459961 C -9.422950744628906 38.3162956237793 -9.422950744628906 34.77877426147461 -7.731208801269531 31.9400749206543 L 14.04955291748047 -4.607467651367188 C 15.67287445068359 -7.331344604492188 18.60983276367188 -9.000007629394531 21.78075408935547 -9.000007629394531 Z" stroke="none" fill="#ffa700"/></g><g transform="translate(0 0)" clip-path="url(#a)"><path d="M40.2,0C60.668,0,70.156,14.4,70.156,35.989c0,9.435-6.119,29.452-20.9,34.774-18.583,6.691-46.9,0-46.9,0S-2.171,57.8,1.326,37.645,19.741,0,40.2,0Z" transform="translate(21.046 2.773)" fill="#ffc62a"/></g><g transform="translate(0 0)" clip-path="url(#b)"><path d="M40.2,0C60.668,0,70.156,14.4,70.156,35.989c0,9.435-6.119,29.452-20.9,34.774-18.583,6.691-46.9,0-46.9,0S-2.171,57.8,1.326,37.645,19.741,0,40.2,0Z" transform="translate(21.046 2.773)" fill="rgba(255,179,0,0.62)"/></g></g><g transform="translate(-14648.072 -12587.044)"><g transform="translate(0 0)" fill="#ffc62c" stroke-linecap="round" stroke-linejoin="round"><path d="M 67.89897155761719 77.59506988525391 L 65.34226226806641 77.59506988525391 L 21.78075790405273 77.59506988525391 L 19.22405052185059 77.59506988525391 L 17.91515731811523 75.39879608154297 L -3.865595817565918 38.85125732421875 L -5.238518714904785 36.54753494262695 L -3.865595817565918 34.24381256103516 L 17.91515731811523 -2.303726673126221 L 19.22405052185059 -4.500003337860107 L 21.78075790405273 -4.500003337860107 L 65.34226226806641 -4.500003337860107 L 67.89897155761719 -4.500003337860107 L 69.20786285400391 -2.303726673126221 L 90.98861694335938 34.24381256103516 L 92.36154174804688 36.54753494262695 L 90.98861694335938 38.85125732421875 L 69.20786285400391 75.39879608154297 L 67.89897155761719 77.59506988525391 Z" stroke="none"/><path d="M 21.78075408935547 -7.62939453125e-06 L -7.62939453125e-06 36.54753494262695 L 21.78075408935547 73.09507751464844 L 65.34226989746094 73.09507751464844 L 87.12300872802734 36.54753494262695 L 65.34226989746094 -7.62939453125e-06 L 21.78075408935547 -7.62939453125e-06 M 21.78075408935547 -9.000007629394531 L 65.34226989746094 -9.000007629394531 C 68.51319122314453 -9.000007629394531 71.45014953613281 -7.331344604492188 73.07347106933594 -4.607467651367188 L 94.85420989990234 31.9400749206543 C 96.54595184326172 34.77877426147461 96.54595184326172 38.3162956237793 94.85420989990234 41.15499496459961 L 73.07347106933594 77.70253753662109 C 71.45014953613281 80.42641448974609 68.51319122314453 82.09507751464844 65.34226989746094 82.09507751464844 L 21.78075408935547 82.09507751464844 C 18.60983276367188 82.09507751464844 15.67287445068359 80.42641448974609 14.04955291748047 77.70253753662109 L -7.731208801269531 41.15499496459961 C -9.422950744628906 38.3162956237793 -9.422950744628906 34.77877426147461 -7.731208801269531 31.9400749206543 L 14.04955291748047 -4.607467651367188 C 15.67287445068359 -7.331344604492188 18.60983276367188 -9.000007629394531 21.78075408935547 -9.000007629394531 Z" stroke="none" fill="#ffa700"/></g><g transform="translate(0 0)" clip-path="url(#a)"><path d="M40.2,0C60.668,0,70.156,14.4,70.156,35.989c0,9.435-6.119,29.452-20.9,34.774-18.583,6.691-46.9,0-46.9,0S-2.171,57.8,1.326,37.645,19.741,0,40.2,0Z" transform="translate(21.046 2.773)" fill="#ffc62a"/></g><g transform="translate(0 0)" clip-path="url(#b)"><path d="M40.2,0C60.668,0,70.156,14.4,70.156,35.989c0,9.435-6.119,29.452-20.9,34.774-18.583,6.691-46.9,0-46.9,0S-2.171,57.8,1.326,37.645,19.741,0,40.2,0Z" transform="translate(21.046 2.773)" fill="rgba(255,179,0,0.62)"/></g></g><g transform="translate(-14648.072 -12487.044)"><g transform="translate(0 0)" fill="#ffc62c" stroke-linecap="round" stroke-linejoin="round"><path d="M 67.89897155761719 77.59506988525391 L 65.34226226806641 77.59506988525391 L 21.78075790405273 77.59506988525391 L 19.22405052185059 77.59506988525391 L 17.91515731811523 75.39879608154297 L -3.865595817565918 38.85125732421875 L -5.238518714904785 36.54753494262695 L -3.865595817565918 34.24381256103516 L 17.91515731811523 -2.303726673126221 L 19.22405052185059 -4.500003337860107 L 21.78075790405273 -4.500003337860107 L 65.34226226806641 -4.500003337860107 L 67.89897155761719 -4.500003337860107 L 69.20786285400391 -2.303726673126221 L 90.98861694335938 34.24381256103516 L 92.36154174804688 36.54753494262695 L 90.98861694335938 38.85125732421875 L 69.20786285400391 75.39879608154297 L 67.89897155761719 77.59506988525391 Z" stroke="none"/><path d="M 21.78075408935547 -7.62939453125e-06 L -7.62939453125e-06 36.54753494262695 L 21.78075408935547 73.09507751464844 L 65.34226989746094 73.09507751464844 L 87.12300872802734 36.54753494262695 L 65.34226989746094 -7.62939453125e-06 L 21.78075408935547 -7.62939453125e-06 M 21.78075408935547 -9.000007629394531 L 65.34226989746094 -9.000007629394531 C 68.51319122314453 -9.000007629394531 71.45014953613281 -7.331344604492188 73.07347106933594 -4.607467651367188 L 94.85420989990234 31.9400749206543 C 96.54595184326172 34.77877426147461 96.54595184326172 38.3162956237793 94.85420989990234 41.15499496459961 L 73.07347106933594 77.70253753662109 C 71.45014953613281 80.42641448974609 68.51319122314453 82.09507751464844 65.34226989746094 82.09507751464844 L 21.78075408935547 82.09507751464844 C 18.60983276367188 82.09507751464844 15.67287445068359 80.42641448974609 14.04955291748047 77.70253753662109 L -7.731208801269531 41.15499496459961 C -9.422950744628906 38.3162956237793 -9.422950744628906 34.77877426147461 -7.731208801269531 31.9400749206543 L 14.04955291748047 -4.607467651367188 C 15.67287445068359 -7.331344604492188 18.60983276367188 -9.000007629394531 21.78075408935547 -9.000007629394531 Z" stroke="none" fill="#ffa700"/></g><g transform="translate(0 0)" clip-path="url(#a)"><path d="M40.2,0C60.668,0,70.156,14.4,70.156,35.989c0,9.435-6.119,29.452-20.9,34.774-18.583,6.691-46.9,0-46.9,0S-2.171,57.8,1.326,37.645,19.741,0,40.2,0Z" transform="translate(21.046 2.773)" fill="#ffc62a"/></g><g transform="translate(0 0)" clip-path="url(#b)"><path d="M40.2,0C60.668,0,70.156,14.4,70.156,35.989c0,9.435-6.119,29.452-20.9,34.774-18.583,6.691-46.9,0-46.9,0S-2.171,57.8,1.326,37.645,19.741,0,40.2,0Z" transform="translate(21.046 2.773)" fill="rgba(255,179,0,0.62)"/></g></g><g transform="translate(-14648.072 -12387.044)"><g transform="translate(0 0)" fill="#ffc62c" stroke-linecap="round" stroke-linejoin="round"><path d="M 67.89897155761719 77.59506988525391 L 65.34226226806641 77.59506988525391 L 21.78075790405273 77.59506988525391 L 19.22405052185059 77.59506988525391 L 17.91515731811523 75.39879608154297 L -3.865595817565918 38.85125732421875 L -5.238518714904785 36.54753494262695 L -3.865595817565918 34.24381256103516 L 17.91515731811523 -2.303726673126221 L 19.22405052185059 -4.500003337860107 L 21.78075790405273 -4.500003337860107 L 65.34226226806641 -4.500003337860107 L 67.89897155761719 -4.500003337860107 L 69.20786285400391 -2.303726673126221 L 90.98861694335938 34.24381256103516 L 92.36154174804688 36.54753494262695 L 90.98861694335938 38.85125732421875 L 69.20786285400391 75.39879608154297 L 67.89897155761719 77.59506988525391 Z" stroke="none"/><path d="M 21.78075408935547 -7.62939453125e-06 L -7.62939453125e-06 36.54753494262695 L 21.78075408935547 73.09507751464844 L 65.34226989746094 73.09507751464844 L 87.12300872802734 36.54753494262695 L 65.34226989746094 -7.62939453125e-06 L 21.78075408935547 -7.62939453125e-06 M 21.78075408935547 -9.000007629394531 L 65.34226989746094 -9.000007629394531 C 68.51319122314453 -9.000007629394531 71.45014953613281 -7.331344604492188 73.07347106933594 -4.607467651367188 L 94.85420989990234 31.9400749206543 C 96.54595184326172 34.77877426147461 96.54595184326172 38.3162956237793 94.85420989990234 41.15499496459961 L 73.07347106933594 77.70253753662109 C 71.45014953613281 80.42641448974609 68.51319122314453 82.09507751464844 65.34226989746094 82.09507751464844 L 21.78075408935547 82.09507751464844 C 18.60983276367188 82.09507751464844 15.67287445068359 80.42641448974609 14.04955291748047 77.70253753662109 L -7.731208801269531 41.15499496459961 C -9.422950744628906 38.3162956237793 -9.422950744628906 34.77877426147461 -7.731208801269531 31.9400749206543 L 14.04955291748047 -4.607467651367188 C 15.67287445068359 -7.331344604492188 18.60983276367188 -9.000007629394531 21.78075408935547 -9.000007629394531 Z" stroke="none" fill="#ffa700"/></g><g transform="translate(0 0)" clip-path="url(#a)"><path d="M40.2,0C60.668,0,70.156,14.4,70.156,35.989c0,9.435-6.119,29.452-20.9,34.774-18.583,6.691-46.9,0-46.9,0S-2.171,57.8,1.326,37.645,19.741,0,40.2,0Z" transform="translate(21.046 2.773)" fill="#ffc62a"/></g><g transform="translate(0 0)" clip-path="url(#b)"><path d="M40.2,0C60.668,0,70.156,14.4,70.156,35.989c0,9.435-6.119,29.452-20.9,34.774-18.583,6.691-46.9,0-46.9,0S-2.171,57.8,1.326,37.645,19.741,0,40.2,0Z" transform="translate(21.046 2.773)" fill="rgba(255,179,0,0.62)"/></g></g><g transform="translate(-14735.195 -12737.044)"><g transform="translate(0 0)" fill="#ffc62c" stroke-linecap="round" stroke-linejoin="round"><path d="M 67.89897155761719 77.59506988525391 L 65.34226226806641 77.59506988525391 L 21.78075790405273 77.59506988525391 L 19.22405052185059 77.59506988525391 L 17.91515731811523 75.39879608154297 L -3.865595817565918 38.85125732421875 L -5.238518714904785 36.54753494262695 L -3.865595817565918 34.24381256103516 L 17.91515731811523 -2.303726673126221 L 19.22405052185059 -4.500003337860107 L 21.78075790405273 -4.500003337860107 L 65.34226226806641 -4.500003337860107 L 67.89897155761719 -4.500003337860107 L 69.20786285400391 -2.303726673126221 L 90.98861694335938 34.24381256103516 L 92.36154174804688 36.54753494262695 L 90.98861694335938 38.85125732421875 L 69.20786285400391 75.39879608154297 L 67.89897155761719 77.59506988525391 Z" stroke="none"/><path d="M 21.78075408935547 -7.62939453125e-06 L -7.62939453125e-06 36.54753494262695 L 21.78075408935547 73.09507751464844 L 65.34226989746094 73.09507751464844 L 87.12300872802734 36.54753494262695 L 65.34226989746094 -7.62939453125e-06 L 21.78075408935547 -7.62939453125e-06 M 21.78075408935547 -9.000007629394531 L 65.34226989746094 -9.000007629394531 C 68.51319122314453 -9.000007629394531 71.45014953613281 -7.331344604492188 73.07347106933594 -4.607467651367188 L 94.85420989990234 31.9400749206543 C 96.54595184326172 34.77877426147461 96.54595184326172 38.3162956237793 94.85420989990234 41.15499496459961 L 73.07347106933594 77.70253753662109 C 71.45014953613281 80.42641448974609 68.51319122314453 82.09507751464844 65.34226989746094 82.09507751464844 L 21.78075408935547 82.09507751464844 C 18.60983276367188 82.09507751464844 15.67287445068359 80.42641448974609 14.04955291748047 77.70253753662109 L -7.731208801269531 41.15499496459961 C -9.422950744628906 38.3162956237793 -9.422950744628906 34.77877426147461 -7.731208801269531 31.9400749206543 L 14.04955291748047 -4.607467651367188 C 15.67287445068359 -7.331344604492188 18.60983276367188 -9.000007629394531 21.78075408935547 -9.000007629394531 Z" stroke="none" fill="#ffa700"/></g><g transform="translate(0 0)" clip-path="url(#a)"><path d="M40.2,0C60.668,0,70.156,14.4,70.156,35.989c0,9.435-6.119,29.452-20.9,34.774-18.583,6.691-46.9,0-46.9,0S-2.171,57.8,1.326,37.645,19.741,0,40.2,0Z" transform="translate(21.046 2.773)" fill="#ffc62a"/></g><g transform="translate(0 0)" clip-path="url(#b)"><path d="M40.2,0C60.668,0,70.156,14.4,70.156,35.989c0,9.435-6.119,29.452-20.9,34.774-18.583,6.691-46.9,0-46.9,0S-2.171,57.8,1.326,37.645,19.741,0,40.2,0Z" transform="translate(21.046 2.773)" fill="rgba(255,179,0,0.62)"/></g></g><g transform="translate(-14560.949 -12637.044)"><g transform="translate(0 0)" fill="#ffc62c" stroke-linecap="round" stroke-linejoin="round"><path d="M 67.89897155761719 77.59506988525391 L 65.34226226806641 77.59506988525391 L 21.78075790405273 77.59506988525391 L 19.22405052185059 77.59506988525391 L 17.91515731811523 75.39879608154297 L -3.865595817565918 38.85125732421875 L -5.238518714904785 36.54753494262695 L -3.865595817565918 34.24381256103516 L 17.91515731811523 -2.303726673126221 L 19.22405052185059 -4.500003337860107 L 21.78075790405273 -4.500003337860107 L 65.34226226806641 -4.500003337860107 L 67.89897155761719 -4.500003337860107 L 69.20786285400391 -2.303726673126221 L 90.98861694335938 34.24381256103516 L 92.36154174804688 36.54753494262695 L 90.98861694335938 38.85125732421875 L 69.20786285400391 75.39879608154297 L 67.89897155761719 77.59506988525391 Z" stroke="none"/><path d="M 21.78075408935547 -7.62939453125e-06 L -7.62939453125e-06 36.54753494262695 L 21.78075408935547 73.09507751464844 L 65.34226989746094 73.09507751464844 L 87.12300872802734 36.54753494262695 L 65.34226989746094 -7.62939453125e-06 L 21.78075408935547 -7.62939453125e-06 M 21.78075408935547 -9.000007629394531 L 65.34226989746094 -9.000007629394531 C 68.51319122314453 -9.000007629394531 71.45014953613281 -7.331344604492188 73.07347106933594 -4.607467651367188 L 94.85420989990234 31.9400749206543 C 96.54595184326172 34.77877426147461 96.54595184326172 38.3162956237793 94.85420989990234 41.15499496459961 L 73.07347106933594 77.70253753662109 C 71.45014953613281 80.42641448974609 68.51319122314453 82.09507751464844 65.34226989746094 82.09507751464844 L 21.78075408935547 82.09507751464844 C 18.60983276367188 82.09507751464844 15.67287445068359 80.42641448974609 14.04955291748047 77.70253753662109 L -7.731208801269531 41.15499496459961 C -9.422950744628906 38.3162956237793 -9.422950744628906 34.77877426147461 -7.731208801269531 31.9400749206543 L 14.04955291748047 -4.607467651367188 C 15.67287445068359 -7.331344604492188 18.60983276367188 -9.000007629394531 21.78075408935547 -9.000007629394531 Z" stroke="none" fill="#ffa700"/></g><g transform="translate(0 0)" clip-path="url(#a)"><path d="M40.2,0C60.668,0,70.156,14.4,70.156,35.989c0,9.435-6.119,29.452-20.9,34.774-18.583,6.691-46.9,0-46.9,0S-2.171,57.8,1.326,37.645,19.741,0,40.2,0Z" transform="translate(21.046 2.773)" fill="#ffc62a"/></g><g transform="translate(0 0)" clip-path="url(#b)"><path d="M40.2,0C60.668,0,70.156,14.4,70.156,35.989c0,9.435-6.119,29.452-20.9,34.774-18.583,6.691-46.9,0-46.9,0S-2.171,57.8,1.326,37.645,19.741,0,40.2,0Z" transform="translate(21.046 2.773)" fill="rgba(255,179,0,0.62)"/></g></g><g transform="translate(-14560.949 -12537.044)"><g transform="translate(0 0)" fill="#ffc62c" stroke-linecap="round" stroke-linejoin="round"><path d="M 67.89897155761719 77.59506988525391 L 65.34226226806641 77.59506988525391 L 21.78075790405273 77.59506988525391 L 19.22405052185059 77.59506988525391 L 17.91515731811523 75.39879608154297 L -3.865595817565918 38.85125732421875 L -5.238518714904785 36.54753494262695 L -3.865595817565918 34.24381256103516 L 17.91515731811523 -2.303726673126221 L 19.22405052185059 -4.500003337860107 L 21.78075790405273 -4.500003337860107 L 65.34226226806641 -4.500003337860107 L 67.89897155761719 -4.500003337860107 L 69.20786285400391 -2.303726673126221 L 90.98861694335938 34.24381256103516 L 92.36154174804688 36.54753494262695 L 90.98861694335938 38.85125732421875 L 69.20786285400391 75.39879608154297 L 67.89897155761719 77.59506988525391 Z" stroke="none"/><path d="M 21.78075408935547 -7.62939453125e-06 L -7.62939453125e-06 36.54753494262695 L 21.78075408935547 73.09507751464844 L 65.34226989746094 73.09507751464844 L 87.12300872802734 36.54753494262695 L 65.34226989746094 -7.62939453125e-06 L 21.78075408935547 -7.62939453125e-06 M 21.78075408935547 -9.000007629394531 L 65.34226989746094 -9.000007629394531 C 68.51319122314453 -9.000007629394531 71.45014953613281 -7.331344604492188 73.07347106933594 -4.607467651367188 L 94.85420989990234 31.9400749206543 C 96.54595184326172 34.77877426147461 96.54595184326172 38.3162956237793 94.85420989990234 41.15499496459961 L 73.07347106933594 77.70253753662109 C 71.45014953613281 80.42641448974609 68.51319122314453 82.09507751464844 65.34226989746094 82.09507751464844 L 21.78075408935547 82.09507751464844 C 18.60983276367188 82.09507751464844 15.67287445068359 80.42641448974609 14.04955291748047 77.70253753662109 L -7.731208801269531 41.15499496459961 C -9.422950744628906 38.3162956237793 -9.422950744628906 34.77877426147461 -7.731208801269531 31.9400749206543 L 14.04955291748047 -4.607467651367188 C 15.67287445068359 -7.331344604492188 18.60983276367188 -9.000007629394531 21.78075408935547 -9.000007629394531 Z" stroke="none" fill="#ffa700"/></g><g transform="translate(0 0)" clip-path="url(#a)"><path d="M40.2,0C60.668,0,70.156,14.4,70.156,35.989c0,9.435-6.119,29.452-20.9,34.774-18.583,6.691-46.9,0-46.9,0S-2.171,57.8,1.326,37.645,19.741,0,40.2,0Z" transform="translate(21.046 2.773)" fill="#ffc62a"/></g><g transform="translate(0 0)" clip-path="url(#b)"><path d="M40.2,0C60.668,0,70.156,14.4,70.156,35.989c0,9.435-6.119,29.452-20.9,34.774-18.583,6.691-46.9,0-46.9,0S-2.171,57.8,1.326,37.645,19.741,0,40.2,0Z" transform="translate(21.046 2.773)" fill="rgba(255,179,0,0.62)"/></g></g><g transform="translate(-14560.949 -12437.044)"><g transform="translate(0 0)" fill="#ffc62c" stroke-linecap="round" stroke-linejoin="round"><path d="M 67.89897155761719 77.59506988525391 L 65.34226226806641 77.59506988525391 L 21.78075790405273 77.59506988525391 L 19.22405052185059 77.59506988525391 L 17.91515731811523 75.39879608154297 L -3.865595817565918 38.85125732421875 L -5.238518714904785 36.54753494262695 L -3.865595817565918 34.24381256103516 L 17.91515731811523 -2.303726673126221 L 19.22405052185059 -4.500003337860107 L 21.78075790405273 -4.500003337860107 L 65.34226226806641 -4.500003337860107 L 67.89897155761719 -4.500003337860107 L 69.20786285400391 -2.303726673126221 L 90.98861694335938 34.24381256103516 L 92.36154174804688 36.54753494262695 L 90.98861694335938 38.85125732421875 L 69.20786285400391 75.39879608154297 L 67.89897155761719 77.59506988525391 Z" stroke="none"/><path d="M 21.78075408935547 -7.62939453125e-06 L -7.62939453125e-06 36.54753494262695 L 21.78075408935547 73.09507751464844 L 65.34226989746094 73.09507751464844 L 87.12300872802734 36.54753494262695 L 65.34226989746094 -7.62939453125e-06 L 21.78075408935547 -7.62939453125e-06 M 21.78075408935547 -9.000007629394531 L 65.34226989746094 -9.000007629394531 C 68.51319122314453 -9.000007629394531 71.45014953613281 -7.331344604492188 73.07347106933594 -4.607467651367188 L 94.85420989990234 31.9400749206543 C 96.54595184326172 34.77877426147461 96.54595184326172 38.3162956237793 94.85420989990234 41.15499496459961 L 73.07347106933594 77.70253753662109 C 71.45014953613281 80.42641448974609 68.51319122314453 82.09507751464844 65.34226989746094 82.09507751464844 L 21.78075408935547 82.09507751464844 C 18.60983276367188 82.09507751464844 15.67287445068359 80.42641448974609 14.04955291748047 77.70253753662109 L -7.731208801269531 41.15499496459961 C -9.422950744628906 38.3162956237793 -9.422950744628906 34.77877426147461 -7.731208801269531 31.9400749206543 L 14.04955291748047 -4.607467651367188 C 15.67287445068359 -7.331344604492188 18.60983276367188 -9.000007629394531 21.78075408935547 -9.000007629394531 Z" stroke="none" fill="#ffa700"/></g><g transform="translate(0 0)" clip-path="url(#a)"><path d="M40.2,0C60.668,0,70.156,14.4,70.156,35.989c0,9.435-6.119,29.452-20.9,34.774-18.583,6.691-46.9,0-46.9,0S-2.171,57.8,1.326,37.645,19.741,0,40.2,0Z" transform="translate(21.046 2.773)" fill="#ffc62a"/></g><g transform="translate(0 0)" clip-path="url(#b)"><path d="M40.2,0C60.668,0,70.156,14.4,70.156,35.989c0,9.435-6.119,29.452-20.9,34.774-18.583,6.691-46.9,0-46.9,0S-2.171,57.8,1.326,37.645,19.741,0,40.2,0Z" transform="translate(21.046 2.773)" fill="rgba(255,179,0,0.62)"/></g></g><g transform="translate(-14560.949 -12337.044)"><g transform="translate(0 0)" fill="#ffc62c" stroke-linecap="round" stroke-linejoin="round"><path d="M 67.89897155761719 77.59506988525391 L 65.34226226806641 77.59506988525391 L 21.78075790405273 77.59506988525391 L 19.22405052185059 77.59506988525391 L 17.91515731811523 75.39879608154297 L -3.865595817565918 38.85125732421875 L -5.238518714904785 36.54753494262695 L -3.865595817565918 34.24381256103516 L 17.91515731811523 -2.303726673126221 L 19.22405052185059 -4.500003337860107 L 21.78075790405273 -4.500003337860107 L 65.34226226806641 -4.500003337860107 L 67.89897155761719 -4.500003337860107 L 69.20786285400391 -2.303726673126221 L 90.98861694335938 34.24381256103516 L 92.36154174804688 36.54753494262695 L 90.98861694335938 38.85125732421875 L 69.20786285400391 75.39879608154297 L 67.89897155761719 77.59506988525391 Z" stroke="none"/><path d="M 21.78075408935547 -7.62939453125e-06 L -7.62939453125e-06 36.54753494262695 L 21.78075408935547 73.09507751464844 L 65.34226989746094 73.09507751464844 L 87.12300872802734 36.54753494262695 L 65.34226989746094 -7.62939453125e-06 L 21.78075408935547 -7.62939453125e-06 M 21.78075408935547 -9.000007629394531 L 65.34226989746094 -9.000007629394531 C 68.51319122314453 -9.000007629394531 71.45014953613281 -7.331344604492188 73.07347106933594 -4.607467651367188 L 94.85420989990234 31.9400749206543 C 96.54595184326172 34.77877426147461 96.54595184326172 38.3162956237793 94.85420989990234 41.15499496459961 L 73.07347106933594 77.70253753662109 C 71.45014953613281 80.42641448974609 68.51319122314453 82.09507751464844 65.34226989746094 82.09507751464844 L 21.78075408935547 82.09507751464844 C 18.60983276367188 82.09507751464844 15.67287445068359 80.42641448974609 14.04955291748047 77.70253753662109 L -7.731208801269531 41.15499496459961 C -9.422950744628906 38.3162956237793 -9.422950744628906 34.77877426147461 -7.731208801269531 31.9400749206543 L 14.04955291748047 -4.607467651367188 C 15.67287445068359 -7.331344604492188 18.60983276367188 -9.000007629394531 21.78075408935547 -9.000007629394531 Z" stroke="none" fill="#ffa700"/></g><g transform="translate(0 0)" clip-path="url(#a)"><path d="M40.2,0C60.668,0,70.156,14.4,70.156,35.989c0,9.435-6.119,29.452-20.9,34.774-18.583,6.691-46.9,0-46.9,0S-2.171,57.8,1.326,37.645,19.741,0,40.2,0Z" transform="translate(21.046 2.773)" fill="#ffc62a"/></g><g transform="translate(0 0)" clip-path="url(#b)"><path d="M40.2,0C60.668,0,70.156,14.4,70.156,35.989c0,9.435-6.119,29.452-20.9,34.774-18.583,6.691-46.9,0-46.9,0S-2.171,57.8,1.326,37.645,19.741,0,40.2,0Z" transform="translate(21.046 2.773)" fill="rgba(255,179,0,0.62)"/></g></g><g transform="translate(-14560.949 -12737.044)"><g transform="translate(0 0)" fill="#ffc62c" stroke-linecap="round" stroke-linejoin="round"><path d="M 67.89897155761719 77.59506988525391 L 65.34226226806641 77.59506988525391 L 21.78075790405273 77.59506988525391 L 19.22405052185059 77.59506988525391 L 17.91515731811523 75.39879608154297 L -3.865595817565918 38.85125732421875 L -5.238518714904785 36.54753494262695 L -3.865595817565918 34.24381256103516 L 17.91515731811523 -2.303726673126221 L 19.22405052185059 -4.500003337860107 L 21.78075790405273 -4.500003337860107 L 65.34226226806641 -4.500003337860107 L 67.89897155761719 -4.500003337860107 L 69.20786285400391 -2.303726673126221 L 90.98861694335938 34.24381256103516 L 92.36154174804688 36.54753494262695 L 90.98861694335938 38.85125732421875 L 69.20786285400391 75.39879608154297 L 67.89897155761719 77.59506988525391 Z" stroke="none"/><path d="M 21.78075408935547 -7.62939453125e-06 L -7.62939453125e-06 36.54753494262695 L 21.78075408935547 73.09507751464844 L 65.34226989746094 73.09507751464844 L 87.12300872802734 36.54753494262695 L 65.34226989746094 -7.62939453125e-06 L 21.78075408935547 -7.62939453125e-06 M 21.78075408935547 -9.000007629394531 L 65.34226989746094 -9.000007629394531 C 68.51319122314453 -9.000007629394531 71.45014953613281 -7.331344604492188 73.07347106933594 -4.607467651367188 L 94.85420989990234 31.9400749206543 C 96.54595184326172 34.77877426147461 96.54595184326172 38.3162956237793 94.85420989990234 41.15499496459961 L 73.07347106933594 77.70253753662109 C 71.45014953613281 80.42641448974609 68.51319122314453 82.09507751464844 65.34226989746094 82.09507751464844 L 21.78075408935547 82.09507751464844 C 18.60983276367188 82.09507751464844 15.67287445068359 80.42641448974609 14.04955291748047 77.70253753662109 L -7.731208801269531 41.15499496459961 C -9.422950744628906 38.3162956237793 -9.422950744628906 34.77877426147461 -7.731208801269531 31.9400749206543 L 14.04955291748047 -4.607467651367188 C 15.67287445068359 -7.331344604492188 18.60983276367188 -9.000007629394531 21.78075408935547 -9.000007629394531 Z" stroke="none" fill="#ffa700"/></g><g transform="translate(0 0)" clip-path="url(#a)"><path d="M40.2,0C60.668,0,70.156,14.4,70.156,35.989c0,9.435-6.119,29.452-20.9,34.774-18.583,6.691-46.9,0-46.9,0S-2.171,57.8,1.326,37.645,19.741,0,40.2,0Z" transform="translate(21.046 2.773)" fill="#ffc62a"/></g><g transform="translate(0 0)" clip-path="url(#b)"><path d="M40.2,0C60.668,0,70.156,14.4,70.156,35.989c0,9.435-6.119,29.452-20.9,34.774-18.583,6.691-46.9,0-46.9,0S-2.171,57.8,1.326,37.645,19.741,0,40.2,0Z" transform="translate(21.046 2.773)" fill="rgba(255,179,0,0.62)"/></g></g><g transform="translate(-14473.826 -12687.044)"><g transform="translate(0 0)" fill="#ffc62c" stroke-linecap="round" stroke-linejoin="round"><path d="M 67.89897155761719 77.59506988525391 L 65.34226226806641 77.59506988525391 L 21.78075790405273 77.59506988525391 L 19.22405052185059 77.59506988525391 L 17.91515731811523 75.39879608154297 L -3.865595817565918 38.85125732421875 L -5.238518714904785 36.54753494262695 L -3.865595817565918 34.24381256103516 L 17.91515731811523 -2.303726673126221 L 19.22405052185059 -4.500003337860107 L 21.78075790405273 -4.500003337860107 L 65.34226226806641 -4.500003337860107 L 67.89897155761719 -4.500003337860107 L 69.20786285400391 -2.303726673126221 L 90.98861694335938 34.24381256103516 L 92.36154174804688 36.54753494262695 L 90.98861694335938 38.85125732421875 L 69.20786285400391 75.39879608154297 L 67.89897155761719 77.59506988525391 Z" stroke="none"/><path d="M 21.78075408935547 -7.62939453125e-06 L -7.62939453125e-06 36.54753494262695 L 21.78075408935547 73.09507751464844 L 65.34226989746094 73.09507751464844 L 87.12300872802734 36.54753494262695 L 65.34226989746094 -7.62939453125e-06 L 21.78075408935547 -7.62939453125e-06 M 21.78075408935547 -9.000007629394531 L 65.34226989746094 -9.000007629394531 C 68.51319122314453 -9.000007629394531 71.45014953613281 -7.331344604492188 73.07347106933594 -4.607467651367188 L 94.85420989990234 31.9400749206543 C 96.54595184326172 34.77877426147461 96.54595184326172 38.3162956237793 94.85420989990234 41.15499496459961 L 73.07347106933594 77.70253753662109 C 71.45014953613281 80.42641448974609 68.51319122314453 82.09507751464844 65.34226989746094 82.09507751464844 L 21.78075408935547 82.09507751464844 C 18.60983276367188 82.09507751464844 15.67287445068359 80.42641448974609 14.04955291748047 77.70253753662109 L -7.731208801269531 41.15499496459961 C -9.422950744628906 38.3162956237793 -9.422950744628906 34.77877426147461 -7.731208801269531 31.9400749206543 L 14.04955291748047 -4.607467651367188 C 15.67287445068359 -7.331344604492188 18.60983276367188 -9.000007629394531 21.78075408935547 -9.000007629394531 Z" stroke="none" fill="#ffa700"/></g><g transform="translate(0 0)" clip-path="url(#a)"><path d="M40.2,0C60.668,0,70.156,14.4,70.156,35.989c0,9.435-6.119,29.452-20.9,34.774-18.583,6.691-46.9,0-46.9,0S-2.171,57.8,1.326,37.645,19.741,0,40.2,0Z" transform="translate(21.046 2.773)" fill="#ffc62a"/></g><g transform="translate(0 0)" clip-path="url(#b)"><path d="M40.2,0C60.668,0,70.156,14.4,70.156,35.989c0,9.435-6.119,29.452-20.9,34.774-18.583,6.691-46.9,0-46.9,0S-2.171,57.8,1.326,37.645,19.741,0,40.2,0Z" transform="translate(21.046 2.773)" fill="rgba(255,179,0,0.62)"/></g></g><g transform="translate(-14473.826 -12587.044)"><g transform="translate(0 0)" fill="#ffc62c" stroke-linecap="round" stroke-linejoin="round"><path d="M 67.89897155761719 77.59506988525391 L 65.34226226806641 77.59506988525391 L 21.78075790405273 77.59506988525391 L 19.22405052185059 77.59506988525391 L 17.91515731811523 75.39879608154297 L -3.865595817565918 38.85125732421875 L -5.238518714904785 36.54753494262695 L -3.865595817565918 34.24381256103516 L 17.91515731811523 -2.303726673126221 L 19.22405052185059 -4.500003337860107 L 21.78075790405273 -4.500003337860107 L 65.34226226806641 -4.500003337860107 L 67.89897155761719 -4.500003337860107 L 69.20786285400391 -2.303726673126221 L 90.98861694335938 34.24381256103516 L 92.36154174804688 36.54753494262695 L 90.98861694335938 38.85125732421875 L 69.20786285400391 75.39879608154297 L 67.89897155761719 77.59506988525391 Z" stroke="none"/><path d="M 21.78075408935547 -7.62939453125e-06 L -7.62939453125e-06 36.54753494262695 L 21.78075408935547 73.09507751464844 L 65.34226989746094 73.09507751464844 L 87.12300872802734 36.54753494262695 L 65.34226989746094 -7.62939453125e-06 L 21.78075408935547 -7.62939453125e-06 M 21.78075408935547 -9.000007629394531 L 65.34226989746094 -9.000007629394531 C 68.51319122314453 -9.000007629394531 71.45014953613281 -7.331344604492188 73.07347106933594 -4.607467651367188 L 94.85420989990234 31.9400749206543 C 96.54595184326172 34.77877426147461 96.54595184326172 38.3162956237793 94.85420989990234 41.15499496459961 L 73.07347106933594 77.70253753662109 C 71.45014953613281 80.42641448974609 68.51319122314453 82.09507751464844 65.34226989746094 82.09507751464844 L 21.78075408935547 82.09507751464844 C 18.60983276367188 82.09507751464844 15.67287445068359 80.42641448974609 14.04955291748047 77.70253753662109 L -7.731208801269531 41.15499496459961 C -9.422950744628906 38.3162956237793 -9.422950744628906 34.77877426147461 -7.731208801269531 31.9400749206543 L 14.04955291748047 -4.607467651367188 C 15.67287445068359 -7.331344604492188 18.60983276367188 -9.000007629394531 21.78075408935547 -9.000007629394531 Z" stroke="none" fill="#ffa700"/></g><g transform="translate(0 0)" clip-path="url(#a)"><path d="M40.2,0C60.668,0,70.156,14.4,70.156,35.989c0,9.435-6.119,29.452-20.9,34.774-18.583,6.691-46.9,0-46.9,0S-2.171,57.8,1.326,37.645,19.741,0,40.2,0Z" transform="translate(21.046 2.773)" fill="#ffc62a"/></g><g transform="translate(0 0)" clip-path="url(#b)"><path d="M40.2,0C60.668,0,70.156,14.4,70.156,35.989c0,9.435-6.119,29.452-20.9,34.774-18.583,6.691-46.9,0-46.9,0S-2.171,57.8,1.326,37.645,19.741,0,40.2,0Z" transform="translate(21.046 2.773)" fill="rgba(255,179,0,0.62)"/></g></g><g transform="translate(-14473.826 -12487.044)"><g transform="translate(0 0)" fill="#ffc62c" stroke-linecap="round" stroke-linejoin="round"><path d="M 67.89897155761719 77.59506988525391 L 65.34226226806641 77.59506988525391 L 21.78075790405273 77.59506988525391 L 19.22405052185059 77.59506988525391 L 17.91515731811523 75.39879608154297 L -3.865595817565918 38.85125732421875 L -5.238518714904785 36.54753494262695 L -3.865595817565918 34.24381256103516 L 17.91515731811523 -2.303726673126221 L 19.22405052185059 -4.500003337860107 L 21.78075790405273 -4.500003337860107 L 65.34226226806641 -4.500003337860107 L 67.89897155761719 -4.500003337860107 L 69.20786285400391 -2.303726673126221 L 90.98861694335938 34.24381256103516 L 92.36154174804688 36.54753494262695 L 90.98861694335938 38.85125732421875 L 69.20786285400391 75.39879608154297 L 67.89897155761719 77.59506988525391 Z" stroke="none"/><path d="M 21.78075408935547 -7.62939453125e-06 L -7.62939453125e-06 36.54753494262695 L 21.78075408935547 73.09507751464844 L 65.34226989746094 73.09507751464844 L 87.12300872802734 36.54753494262695 L 65.34226989746094 -7.62939453125e-06 L 21.78075408935547 -7.62939453125e-06 M 21.78075408935547 -9.000007629394531 L 65.34226989746094 -9.000007629394531 C 68.51319122314453 -9.000007629394531 71.45014953613281 -7.331344604492188 73.07347106933594 -4.607467651367188 L 94.85420989990234 31.9400749206543 C 96.54595184326172 34.77877426147461 96.54595184326172 38.3162956237793 94.85420989990234 41.15499496459961 L 73.07347106933594 77.70253753662109 C 71.45014953613281 80.42641448974609 68.51319122314453 82.09507751464844 65.34226989746094 82.09507751464844 L 21.78075408935547 82.09507751464844 C 18.60983276367188 82.09507751464844 15.67287445068359 80.42641448974609 14.04955291748047 77.70253753662109 L -7.731208801269531 41.15499496459961 C -9.422950744628906 38.3162956237793 -9.422950744628906 34.77877426147461 -7.731208801269531 31.9400749206543 L 14.04955291748047 -4.607467651367188 C 15.67287445068359 -7.331344604492188 18.60983276367188 -9.000007629394531 21.78075408935547 -9.000007629394531 Z" stroke="none" fill="#ffa700"/></g><g transform="translate(0 0)" clip-path="url(#a)"><path d="M40.2,0C60.668,0,70.156,14.4,70.156,35.989c0,9.435-6.119,29.452-20.9,34.774-18.583,6.691-46.9,0-46.9,0S-2.171,57.8,1.326,37.645,19.741,0,40.2,0Z" transform="translate(21.046 2.773)" fill="#ffc62a"/></g><g transform="translate(0 0)" clip-path="url(#b)"><path d="M40.2,0C60.668,0,70.156,14.4,70.156,35.989c0,9.435-6.119,29.452-20.9,34.774-18.583,6.691-46.9,0-46.9,0S-2.171,57.8,1.326,37.645,19.741,0,40.2,0Z" transform="translate(21.046 2.773)" fill="rgba(255,179,0,0.62)"/></g></g><g transform="translate(-14473.826 -12387.044)"><g transform="translate(0 0)" fill="#ffc62c" stroke-linecap="round" stroke-linejoin="round"><path d="M 67.89897155761719 77.59506988525391 L 65.34226226806641 77.59506988525391 L 21.78075790405273 77.59506988525391 L 19.22405052185059 77.59506988525391 L 17.91515731811523 75.39879608154297 L -3.865595817565918 38.85125732421875 L -5.238518714904785 36.54753494262695 L -3.865595817565918 34.24381256103516 L 17.91515731811523 -2.303726673126221 L 19.22405052185059 -4.500003337860107 L 21.78075790405273 -4.500003337860107 L 65.34226226806641 -4.500003337860107 L 67.89897155761719 -4.500003337860107 L 69.20786285400391 -2.303726673126221 L 90.98861694335938 34.24381256103516 L 92.36154174804688 36.54753494262695 L 90.98861694335938 38.85125732421875 L 69.20786285400391 75.39879608154297 L 67.89897155761719 77.59506988525391 Z" stroke="none"/><path d="M 21.78075408935547 -7.62939453125e-06 L -7.62939453125e-06 36.54753494262695 L 21.78075408935547 73.09507751464844 L 65.34226989746094 73.09507751464844 L 87.12300872802734 36.54753494262695 L 65.34226989746094 -7.62939453125e-06 L 21.78075408935547 -7.62939453125e-06 M 21.78075408935547 -9.000007629394531 L 65.34226989746094 -9.000007629394531 C 68.51319122314453 -9.000007629394531 71.45014953613281 -7.331344604492188 73.07347106933594 -4.607467651367188 L 94.85420989990234 31.9400749206543 C 96.54595184326172 34.77877426147461 96.54595184326172 38.3162956237793 94.85420989990234 41.15499496459961 L 73.07347106933594 77.70253753662109 C 71.45014953613281 80.42641448974609 68.51319122314453 82.09507751464844 65.34226989746094 82.09507751464844 L 21.78075408935547 82.09507751464844 C 18.60983276367188 82.09507751464844 15.67287445068359 80.42641448974609 14.04955291748047 77.70253753662109 L -7.731208801269531 41.15499496459961 C -9.422950744628906 38.3162956237793 -9.422950744628906 34.77877426147461 -7.731208801269531 31.9400749206543 L 14.04955291748047 -4.607467651367188 C 15.67287445068359 -7.331344604492188 18.60983276367188 -9.000007629394531 21.78075408935547 -9.000007629394531 Z" stroke="none" fill="#ffa700"/></g><g transform="translate(0 0)" clip-path="url(#a)"><path d="M40.2,0C60.668,0,70.156,14.4,70.156,35.989c0,9.435-6.119,29.452-20.9,34.774-18.583,6.691-46.9,0-46.9,0S-2.171,57.8,1.326,37.645,19.741,0,40.2,0Z" transform="translate(21.046 2.773)" fill="#ffc62a"/></g><g transform="translate(0 0)" clip-path="url(#b)"><path d="M40.2,0C60.668,0,70.156,14.4,70.156,35.989c0,9.435-6.119,29.452-20.9,34.774-18.583,6.691-46.9,0-46.9,0S-2.171,57.8,1.326,37.645,19.741,0,40.2,0Z" transform="translate(21.046 2.773)" fill="rgba(255,179,0,0.62)"/></g></g><g transform="translate(-14909.441 -12537.044)"><g transform="translate(0 0)" fill="#ffc62c" stroke-linecap="round" stroke-linejoin="round"><path d="M 67.89897155761719 77.59506988525391 L 65.34226226806641 77.59506988525391 L 21.78075790405273 77.59506988525391 L 19.22405052185059 77.59506988525391 L 17.91515731811523 75.39879608154297 L -3.865595817565918 38.85125732421875 L -5.238518714904785 36.54753494262695 L -3.865595817565918 34.24381256103516 L 17.91515731811523 -2.303726673126221 L 19.22405052185059 -4.500003337860107 L 21.78075790405273 -4.500003337860107 L 65.34226226806641 -4.500003337860107 L 67.89897155761719 -4.500003337860107 L 69.20786285400391 -2.303726673126221 L 90.98861694335938 34.24381256103516 L 92.36154174804688 36.54753494262695 L 90.98861694335938 38.85125732421875 L 69.20786285400391 75.39879608154297 L 67.89897155761719 77.59506988525391 Z" stroke="none"/><path d="M 21.78075408935547 -7.62939453125e-06 L -7.62939453125e-06 36.54753494262695 L 21.78075408935547 73.09507751464844 L 65.34226989746094 73.09507751464844 L 87.12300872802734 36.54753494262695 L 65.34226989746094 -7.62939453125e-06 L 21.78075408935547 -7.62939453125e-06 M 21.78075408935547 -9.000007629394531 L 65.34226989746094 -9.000007629394531 C 68.51319122314453 -9.000007629394531 71.45014953613281 -7.331344604492188 73.07347106933594 -4.607467651367188 L 94.85420989990234 31.9400749206543 C 96.54595184326172 34.77877426147461 96.54595184326172 38.3162956237793 94.85420989990234 41.15499496459961 L 73.07347106933594 77.70253753662109 C 71.45014953613281 80.42641448974609 68.51319122314453 82.09507751464844 65.34226989746094 82.09507751464844 L 21.78075408935547 82.09507751464844 C 18.60983276367188 82.09507751464844 15.67287445068359 80.42641448974609 14.04955291748047 77.70253753662109 L -7.731208801269531 41.15499496459961 C -9.422950744628906 38.3162956237793 -9.422950744628906 34.77877426147461 -7.731208801269531 31.9400749206543 L 14.04955291748047 -4.607467651367188 C 15.67287445068359 -7.331344604492188 18.60983276367188 -9.000007629394531 21.78075408935547 -9.000007629394531 Z" stroke="none" fill="#ffa700"/></g><g transform="translate(0 0)" clip-path="url(#a)"><path d="M40.2,0C60.668,0,70.156,14.4,70.156,35.989c0,9.435-6.119,29.452-20.9,34.774-18.583,6.691-46.9,0-46.9,0S-2.171,57.8,1.326,37.645,19.741,0,40.2,0Z" transform="translate(21.046 2.773)" fill="#ffc62a"/></g><g transform="translate(0 0)" clip-path="url(#b)"><path d="M40.2,0C60.668,0,70.156,14.4,70.156,35.989c0,9.435-6.119,29.452-20.9,34.774-18.583,6.691-46.9,0-46.9,0S-2.171,57.8,1.326,37.645,19.741,0,40.2,0Z" transform="translate(21.046 2.773)" fill="rgba(255,179,0,0.62)"/></g></g><g transform="translate(-14386.703 -12537.044)"><g transform="translate(0 0)" fill="#ffc62c" stroke-linecap="round" stroke-linejoin="round"><path d="M 67.89897155761719 77.59506988525391 L 65.34226226806641 77.59506988525391 L 21.78075790405273 77.59506988525391 L 19.22405052185059 77.59506988525391 L 17.91515731811523 75.39879608154297 L -3.865595817565918 38.85125732421875 L -5.238518714904785 36.54753494262695 L -3.865595817565918 34.24381256103516 L 17.91515731811523 -2.303726673126221 L 19.22405052185059 -4.500003337860107 L 21.78075790405273 -4.500003337860107 L 65.34226226806641 -4.500003337860107 L 67.89897155761719 -4.500003337860107 L 69.20786285400391 -2.303726673126221 L 90.98861694335938 34.24381256103516 L 92.36154174804688 36.54753494262695 L 90.98861694335938 38.85125732421875 L 69.20786285400391 75.39879608154297 L 67.89897155761719 77.59506988525391 Z" stroke="none"/><path d="M 21.78075408935547 -7.62939453125e-06 L -7.62939453125e-06 36.54753494262695 L 21.78075408935547 73.09507751464844 L 65.34226989746094 73.09507751464844 L 87.12300872802734 36.54753494262695 L 65.34226989746094 -7.62939453125e-06 L 21.78075408935547 -7.62939453125e-06 M 21.78075408935547 -9.000007629394531 L 65.34226989746094 -9.000007629394531 C 68.51319122314453 -9.000007629394531 71.45014953613281 -7.331344604492188 73.07347106933594 -4.607467651367188 L 94.85420989990234 31.9400749206543 C 96.54595184326172 34.77877426147461 96.54595184326172 38.3162956237793 94.85420989990234 41.15499496459961 L 73.07347106933594 77.70253753662109 C 71.45014953613281 80.42641448974609 68.51319122314453 82.09507751464844 65.34226989746094 82.09507751464844 L 21.78075408935547 82.09507751464844 C 18.60983276367188 82.09507751464844 15.67287445068359 80.42641448974609 14.04955291748047 77.70253753662109 L -7.731208801269531 41.15499496459961 C -9.422950744628906 38.3162956237793 -9.422950744628906 34.77877426147461 -7.731208801269531 31.9400749206543 L 14.04955291748047 -4.607467651367188 C 15.67287445068359 -7.331344604492188 18.60983276367188 -9.000007629394531 21.78075408935547 -9.000007629394531 Z" stroke="none" fill="#ffa700"/></g><g transform="translate(0 0)" clip-path="url(#a)"><path d="M40.2,0C60.668,0,70.156,14.4,70.156,35.989c0,9.435-6.119,29.452-20.9,34.774-18.583,6.691-46.9,0-46.9,0S-2.171,57.8,1.326,37.645,19.741,0,40.2,0Z" transform="translate(21.046 2.773)" fill="#ffc62a"/></g><g transform="translate(0 0)" clip-path="url(#b)"><path d="M40.2,0C60.668,0,70.156,14.4,70.156,35.989c0,9.435-6.119,29.452-20.9,34.774-18.583,6.691-46.9,0-46.9,0S-2.171,57.8,1.326,37.645,19.741,0,40.2,0Z" transform="translate(21.046 2.773)" fill="rgba(255,179,0,0.62)"/></g></g></g></svg>