<svg xmlns="http://www.w3.org/2000/svg" xmlns:xlink="http://www.w3.org/1999/xlink" width="125.148" height="108.54" viewBox="0 0 125.148 108.54"><defs><clipPath id="a"><path d="M77.361,0l25.787,43.27L77.361,86.54H25.787L0,43.27,25.787,0Z" transform="translate(0 0)" fill="#ffc62a"/></clipPath><clipPath id="b"><path d="M77.361,0l25.787,43.27L77.361,86.54H25.787L0,43.27,25.787,0Z" transform="translate(0 0)" fill="rgba(255,179,0,0.62)"/></clipPath></defs><g transform="translate(12274.312 8629)"><g transform="translate(-12263.312 -8618)"><g transform="translate(0 0)" fill="#ffc62c" stroke-linecap="round" stroke-linejoin="round"><path d="M 80.48623657226562 92.04020690917969 L 77.36135101318359 92.04020690917969 L 25.78711318969727 92.04020690917969 L 22.66223335266113 92.04020690917969 L 21.0624942779541 89.35586547851562 L -4.724626064300537 46.08576583862305 L -6.402646064758301 43.27010726928711 L -4.724626064300537 40.45444869995117 L 21.0624942779541 -2.815652847290039 L 22.66223335266113 -5.499992847442627 L 25.78711318969727 -5.499992847442627 L 77.36135101318359 -5.499992847442627 L 80.48623657226562 -5.499992847442627 L 82.08597564697266 -2.815652847290039 L 107.8730926513672 40.45444869995117 L 109.5511169433594 43.27010726928711 L 107.8730926513672 46.08576583862305 L 82.08597564697266 89.35586547851562 L 80.48623657226562 92.04020690917969 Z" stroke="none"/><path d="M 25.78711700439453 -1.52587890625e-05 L -7.62939453125e-06 43.27010726928711 L 25.78711700439453 86.54019927978516 L 77.36135101318359 86.54019927978516 L 103.1484756469727 43.27010726928711 L 77.36135101318359 -1.52587890625e-05 L 25.78711700439453 -1.52587890625e-05 M 25.78711700439453 -11.00001525878906 L 77.36135101318359 -11.00001525878906 C 81.23692321777344 -11.00001525878906 84.82652282714844 -8.960533142089844 86.81059265136719 -5.63134765625 L 112.5977096557617 37.63877487182617 C 114.665397644043 41.10829925537109 114.665397644043 45.43191528320312 112.5977096557617 48.90143966674805 L 86.81059265136719 92.17153930664062 C 84.82652282714844 95.50074768066406 81.23692321777344 97.54019927978516 77.36135101318359 97.54019927978516 L 25.78711700439453 97.54019927978516 C 21.91154479980469 97.54019927978516 18.32194519042969 95.50074768066406 16.33787536621094 92.17153930664062 L -9.449241638183594 48.90143966674805 C -11.51692962646484 45.43191528320312 -11.51692962646484 41.10829925537109 -9.449241638183594 37.63877487182617 L 16.33787536621094 -5.63134765625 C 18.32194519042969 -8.960533142089844 21.91154479980469 -11.00001525878906 25.78711700439453 -11.00001525878906 Z" stroke="none" fill="#ffa700"/></g><g transform="translate(0 0)" clip-path="url(#a)"><path d="M47.6,0C71.827,0,83.061,17.048,83.061,42.609c0,11.17-7.245,34.869-24.745,41.17-22,7.922-55.528,0-55.528,0S-2.571,68.436,1.57,44.569,23.373,0,47.6,0Z" transform="translate(24.917 3.283)" fill="#ffc62a"/></g><g transform="translate(0 0)" clip-path="url(#b)"><path d="M47.6,0C71.827,0,83.061,17.048,83.061,42.609c0,11.17-7.245,34.869-24.745,41.17-22,7.922-55.528,0-55.528,0S-2.571,68.436,1.57,44.569,23.373,0,47.6,0Z" transform="translate(24.917 3.283)" fill="rgba(255,179,0,0.62)"/></g></g><path d="M22.848,38.734a25.125,25.125,0,0,0-7.513-5.653,24.328,24.328,0,0,0-8.666-2.49c-.608-.059-1.113-.114-1.121-.122s.008-6.353.039-14.1L5.64,2.286l.562.055A25.007,25.007,0,0,1,16.415,5.8a25.29,25.29,0,0,1,6.756,6.3l.416.583V26.064c0,7.358-.031,13.377-.069,13.376a5,5,0,0,1-.668-.706Zm2.858-12.7V12.6l.8-1.073a27.274,27.274,0,0,1,4.453-4.456A23.71,23.71,0,0,1,43.107,2.331l.576-.059V30.481l-.668.063A25.041,25.041,0,0,0,26.92,38.2l-1.214,1.263V26.031Zm3.918,12.522a22.572,22.572,0,0,1,9.068-5.107,22.915,22.915,0,0,1,5.464-.825c.782,0,1.215-.169,1.46-.571.184-.3.186-.433.186-11.862V8.631l.346.063c.19.039.729.189,1.2.338L48.2,9.3V23.726c0,7.933-.031,14.423-.07,14.423s-.609-.122-1.268-.271a28.414,28.414,0,0,0-7.558-.712,28.713,28.713,0,0,0-9.219,1.66l-1.2.414.738-.692Zm-10.509.224a33.194,33.194,0,0,0-4.932-1.26A27.77,27.77,0,0,0,8.4,37.163a26.09,26.09,0,0,0-5.874.673c-.558.126-1.128.256-1.268.283L1,38.174V9.25l1.083-.315c.6-.173,1.135-.334,1.2-.354.092-.039.115,2.317.115,11.544,0,12.609-.028,11.906.51,12.26a4.413,4.413,0,0,0,1.687.244,22.4,22.4,0,0,1,12.024,4.257,31.594,31.594,0,0,1,2.609,2.2c.071.114.024.1-1.113-.307Z" transform="translate(-12236.338 -8595.6)" fill="#795303"/></g></svg>