<svg xmlns="http://www.w3.org/2000/svg" width="56.837" height="44.788" viewBox="0 0 56.837 44.788"><path d="M27.309,46.179a30.254,30.254,0,0,0-9.047-6.807,29.3,29.3,0,0,0-10.435-3c-.733-.071-1.34-.137-1.35-.147s.009-7.65.047-16.978l.063-16.96.677.066a30.113,30.113,0,0,1,12.3,4.169A30.453,30.453,0,0,1,27.7,14.11l.5.7v16.11c0,8.86-.038,16.109-.083,16.107a6.016,6.016,0,0,1-.8-.85Zm3.441-15.3V14.7l.967-1.293A32.843,32.843,0,0,1,37.08,8.046,28.551,28.551,0,0,1,51.7,2.343l.694-.071V36.24l-.8.076a30.153,30.153,0,0,0-19.38,9.222L30.75,47.06V30.882ZM35.468,45.96a27.181,27.181,0,0,1,10.92-6.15,27.593,27.593,0,0,1,6.58-.993c.941,0,1.463-.2,1.758-.687.222-.365.224-.521.225-14.284V9.929l.416.076c.229.047.878.227,1.443.407l1.027.327V28.107c0,9.552-.038,17.368-.085,17.368s-.734-.147-1.526-.327a34.216,34.216,0,0,0-9.1-.857,34.575,34.575,0,0,0-11.1,2l-1.443.5.888-.833Zm-12.655.27a39.97,39.97,0,0,0-5.939-1.517,33.44,33.44,0,0,0-6.969-.426,31.416,31.416,0,0,0-7.074.81c-.672.152-1.359.308-1.526.341L1,45.5V10.675L2.3,10.3c.717-.208,1.366-.4,1.443-.426.11-.047.139,2.79.139,13.9,0,15.184-.033,14.337.615,14.763a5.314,5.314,0,0,0,2.032.294,26.968,26.968,0,0,1,14.479,5.126A38.045,38.045,0,0,1,24.154,46.6c.085.137.028.123-1.34-.369Z" transform="translate(-1 -2.272)" fill="#543700"/></svg>