<svg xmlns="http://www.w3.org/2000/svg" xmlns:xlink="http://www.w3.org/1999/xlink" width="651.014" height="325.808" viewBox="0 0 651.014 325.808">
  <defs>
    <clipPath id="clip-path">
      <path id="Polygon_16" data-name="Polygon 16" d="M96.565,0l32.188,54.011L96.565,108.022H32.188L0,54.011,32.188,0Z" transform="translate(0 0)" fill="#ffc62a"/>
    </clipPath>
    <clipPath id="clip-path-2">
      <path id="Polygon_17" data-name="Polygon 17" d="M96.565,0l32.188,54.011L96.565,108.022H32.188L0,54.011,32.188,0Z" transform="translate(0 0)" fill="rgba(255,179,0,0.62)"/>
    </clipPath>
  </defs>
  <g id="Group_1149" data-name="Group 1149" transform="translate(920.978 14916.759)">
    <g id="Group_826" data-name="Group 826" transform="translate(-577.708 -14888.114) rotate(-3)">
      <g id="Group_825" data-name="Group 825" transform="matrix(0.985, -0.174, 0.174, 0.985, 0, 22.358)">
        <g id="Polygon_15" data-name="Polygon 15" transform="translate(0 0)" fill="#ffc62c" stroke-linecap="round" stroke-linejoin="round">
          <path d="M 101.3940887451172 116.5220565795898 L 96.56473541259766 116.5220565795898 L 32.18823623657227 116.5220565795898 L 27.35888862609863 116.5220565795898 L 24.88656234741211 112.37353515625 L -7.301662445068359 58.36250686645508 L -9.894962310791016 54.01103210449219 L -7.301662445068359 49.65953063964844 L 24.88658714294434 -4.351492881774902 L 27.35891342163086 -8.499993324279785 L 32.18826293945312 -8.499993324279785 L 96.56473541259766 -8.499993324279785 L 101.3940887451172 -8.499993324279785 L 103.8664093017578 -4.351492881774902 L 136.0546569824219 49.65953063964844 L 138.6479644775391 54.01103210449219 L 136.0546569824219 58.36253356933594 L 103.8664093017578 112.3735580444336 L 101.3940887451172 116.5220565795898 Z" stroke="none"/>
          <path d="M 32.18825531005859 0 L -1.52587890625e-05 54.01103210449219 L 32.18825531005859 108.0220642089844 L 96.56472015380859 108.0220642089844 L 128.7529907226562 54.01103210449219 L 96.56472015380859 0 L 32.18825531005859 0 M 32.18825531005859 -17 L 96.56472015380859 -17 C 102.5542526245117 -17 108.1018218994141 -13.84809875488281 111.1680908203125 -8.702964782714844 L 143.3563537597656 45.30806732177734 C 146.5518493652344 50.6700325012207 146.5518493652344 57.35203170776367 143.3563537597656 62.71399688720703 L 111.1680908203125 116.7250289916992 C 108.1018218994141 121.8701629638672 102.5542526245117 125.0220642089844 96.56472015380859 125.0220642089844 L 32.18825531005859 125.0220642089844 C 26.19872283935547 125.0220642089844 20.65115356445312 121.8701629638672 17.58488464355469 116.7250289916992 L -14.60337829589844 62.71399688720703 C -17.79887390136719 57.35203170776367 -17.79887390136719 50.6700325012207 -14.60337829589844 45.30806732177734 L 17.58488464355469 -8.702964782714844 C 20.65115356445312 -13.84809875488281 26.19872283935547 -17 32.18825531005859 -17 Z" stroke="none" fill="#ffa700"/>
        </g>
        <g id="Mask_Group_2" data-name="Mask Group 2" transform="translate(0 0)" clip-path="url(#clip-path)">
          <path id="Path_1275" data-name="Path 1275" d="M59.416,0c30.241,0,44.263,21.28,44.263,53.186,0,13.943-9.044,43.525-30.887,51.39-27.463,9.888-69.311,0-69.311,0S-3.209,85.424,1.96,55.632,29.175,0,59.416,0Z" transform="translate(31.102 4.098)" fill="#ffc62a"/>
        </g>
        <g id="Mask_Group_3" data-name="Mask Group 3" transform="translate(0 0)" clip-path="url(#clip-path-2)">
          <path id="Path_1276" data-name="Path 1276" d="M59.416,0c30.241,0,44.263,21.28,44.263,53.186,0,13.943-9.044,43.525-30.887,51.39-27.463,9.888-69.311,0-69.311,0S-3.209,85.424,1.96,55.632,29.175,0,59.416,0Z" transform="translate(31.102 4.098)" fill="rgba(255,179,0,0.62)"/>
        </g>
      </g>
      <g id="Group_823" data-name="Group 823" transform="matrix(0.985, -0.174, 0.174, 0.985, 137.69, 70.697)">
        <g id="Polygon_18" data-name="Polygon 18" transform="translate(0 0)" fill="#ffc62c" stroke-linecap="round" stroke-linejoin="round">
          <path d="M 100.5418472290039 115.0220565795898 L 96.56472778320312 115.0220565795898 L 32.18825149536133 115.0220565795898 L 28.21113014221191 115.0220565795898 L 26.17510604858398 111.6056289672852 L -6.013131141662598 57.5946044921875 L -8.148797988891602 54.01103210449219 L -6.013131141662598 50.42745971679688 L 26.17510604858398 -3.583563089370728 L 28.21113014221191 -6.999991893768311 L 32.18825149536133 -6.999991893768311 L 96.56472778320312 -6.999991893768311 L 100.5418472290039 -6.999991893768311 L 102.5778656005859 -3.583563089370728 L 134.7661285400391 50.42745971679688 L 136.9017944335938 54.01103210449219 L 134.7661285400391 57.5946044921875 L 102.5778656005859 111.6056289672852 L 100.5418472290039 115.0220565795898 Z" stroke="none"/>
          <path d="M 32.18824005126953 0 L -1.52587890625e-05 54.01103210449219 L 32.18824005126953 108.0220642089844 L 96.56474304199219 108.0220642089844 L 128.7529907226562 54.01103210449219 L 96.56474304199219 0 L 32.18824005126953 0 M 32.18824005126953 -14 L 96.56474304199219 -14 C 101.4972686767578 -14 106.0658645629883 -11.40431213378906 108.5910491943359 -7.167152404785156 L 140.779296875 46.84387588500977 C 143.410888671875 51.25962448120117 143.410888671875 56.7624397277832 140.779296875 61.17818832397461 L 108.5910491943359 115.1892166137695 C 106.0658645629883 119.4263763427734 101.4972686767578 122.0220642089844 96.56474304199219 122.0220642089844 L 32.18824005126953 122.0220642089844 C 27.25570678710938 122.0220642089844 22.68711090087891 119.4263763427734 20.16192626953125 115.1892166137695 L -12.02632141113281 61.17818832397461 C -14.65791320800781 56.7624397277832 -14.65791320800781 51.25962448120117 -12.02632141113281 46.84387588500977 L 20.16192626953125 -7.167152404785156 C 22.68711090087891 -11.40431213378906 27.25570678710938 -14 32.18824005126953 -14 Z" stroke="none" fill="#ffa700"/>
        </g>
        <g id="Mask_Group_4" data-name="Mask Group 4" transform="translate(0 0)" clip-path="url(#clip-path)">
          <path id="Path_1277" data-name="Path 1277" d="M59.416,0c30.241,0,44.263,21.28,44.263,53.186,0,13.943-9.044,43.525-30.887,51.39-27.463,9.888-69.311,0-69.311,0S-3.209,85.424,1.96,55.632,29.175,0,59.416,0Z" transform="translate(31.102 4.098)" fill="#ffc62a"/>
        </g>
        <g id="Mask_Group_5" data-name="Mask Group 5" transform="translate(0 0)" clip-path="url(#clip-path-2)">
          <path id="Path_1278" data-name="Path 1278" d="M59.416,0c30.241,0,44.263,21.28,44.263,53.186,0,13.943-9.044,43.525-30.887,51.39-27.463,9.888-69.311,0-69.311,0S-3.209,85.424,1.96,55.632,29.175,0,59.416,0Z" transform="translate(31.102 4.098)" fill="rgba(255,179,0,0.62)"/>
        </g>
      </g>
      <g id="Group_824" data-name="Group 824" transform="matrix(0.985, -0.174, 0.174, 0.985, 24.46, 164.845)">
        <g id="Polygon_21" data-name="Polygon 21" transform="translate(0 0)" fill="#ffc62c" stroke-linecap="round" stroke-linejoin="round">
          <path d="M 100.5418472290039 115.0220565795898 L 96.56472778320312 115.0220565795898 L 32.18825149536133 115.0220565795898 L 28.21113014221191 115.0220565795898 L 26.17510604858398 111.6056289672852 L -6.013131141662598 57.5946044921875 L -8.148797988891602 54.01103210449219 L -6.013131141662598 50.42745971679688 L 26.17510604858398 -3.583563089370728 L 28.21113014221191 -6.999991893768311 L 32.18825149536133 -6.999991893768311 L 96.56472778320312 -6.999991893768311 L 100.5418472290039 -6.999991893768311 L 102.5778656005859 -3.583563089370728 L 134.7661285400391 50.42745971679688 L 136.9017944335938 54.01103210449219 L 134.7661285400391 57.5946044921875 L 102.5778656005859 111.6056289672852 L 100.5418472290039 115.0220565795898 Z" stroke="none"/>
          <path d="M 32.18824005126953 0 L -1.52587890625e-05 54.01103210449219 L 32.18824005126953 108.0220642089844 L 96.56474304199219 108.0220642089844 L 128.7529907226562 54.01103210449219 L 96.56474304199219 0 L 32.18824005126953 0 M 32.18824005126953 -14 L 96.56474304199219 -14 C 101.4972686767578 -14 106.0658645629883 -11.40431213378906 108.5910491943359 -7.167152404785156 L 140.779296875 46.84387588500977 C 143.410888671875 51.25962448120117 143.410888671875 56.7624397277832 140.779296875 61.17818832397461 L 108.5910491943359 115.1892166137695 C 106.0658645629883 119.4263763427734 101.4972686767578 122.0220642089844 96.56474304199219 122.0220642089844 L 32.18824005126953 122.0220642089844 C 27.25570678710938 122.0220642089844 22.68711090087891 119.4263763427734 20.16192626953125 115.1892166137695 L -12.02632141113281 61.17818832397461 C -14.65791320800781 56.7624397277832 -14.65791320800781 51.25962448120117 -12.02632141113281 46.84387588500977 L 20.16192626953125 -7.167152404785156 C 22.68711090087891 -11.40431213378906 27.25570678710938 -14 32.18824005126953 -14 Z" stroke="none" fill="#ffa700"/>
        </g>
        <g id="Mask_Group_6" data-name="Mask Group 6" transform="translate(0 0)" clip-path="url(#clip-path)">
          <path id="Path_1279" data-name="Path 1279" d="M59.416,0c30.241,0,44.263,21.28,44.263,53.186,0,13.943-9.044,43.525-30.887,51.39-27.463,9.888-69.311,0-69.311,0S-3.209,85.424,1.96,55.632,29.175,0,59.416,0Z" transform="translate(31.102 4.098)" fill="#ffc62a"/>
        </g>
        <g id="Mask_Group_7" data-name="Mask Group 7" transform="translate(0 0)" clip-path="url(#clip-path-2)">
          <path id="Path_1280" data-name="Path 1280" d="M59.416,0c30.241,0,44.263,21.28,44.263,53.186,0,13.943-9.044,43.525-30.887,51.39-27.463,9.888-69.311,0-69.311,0S-3.209,85.424,1.96,55.632,29.175,0,59.416,0Z" transform="translate(31.102 4.098)" fill="rgba(255,179,0,0.62)"/>
        </g>
      </g>
    </g>
    <text id="Honey" transform="translate(-915.978 -14773.759)" fill="#543700" stroke="#543700" stroke-linejoin="round" stroke-width="5" font-size="139" font-family="DMSans-Bold, DM Sans" font-weight="700" letter-spacing="-0.016em"><tspan x="0" y="0">Honey</tspan></text>
    <text id="Tiles_" data-name="Tiles " transform="translate(-915.978 -14638.951)" fill="#ffa700" stroke="#ffa700" stroke-linecap="round" stroke-linejoin="round" stroke-width="5" font-size="139" font-family="DMSans-Bold, DM Sans" font-weight="700" letter-spacing="-0.016em"><tspan x="0" y="0">Tiles </tspan></text>
  </g>
</svg>
