<svg xmlns="http://www.w3.org/2000/svg" xmlns:xlink="http://www.w3.org/1999/xlink" width="125.148" height="108.54" viewBox="0 0 125.148 108.54"><defs><clipPath id="a"><path d="M77.361,0l25.787,43.27L77.361,86.54H25.787L0,43.27,25.787,0Z" transform="translate(0 0)" fill="#ffc62a"/></clipPath><clipPath id="b"><path d="M77.361,0l25.787,43.27L77.361,86.54H25.787L0,43.27,25.787,0Z" transform="translate(0 0)" fill="rgba(255,179,0,0.62)"/></clipPath></defs><g transform="translate(12557.852 8874.271)"><g transform="translate(-12546.852 -8863.271)" opacity="0.9"><g transform="translate(0 0)" fill="#ffc62c" stroke-linecap="round" stroke-linejoin="round"><path d="M 80.48623657226562 92.04020690917969 L 77.36135101318359 92.04020690917969 L 25.78711318969727 92.04020690917969 L 22.66223335266113 92.04020690917969 L 21.0624942779541 89.35586547851562 L -4.724626064300537 46.08576583862305 L -6.402646064758301 43.27010726928711 L -4.724626064300537 40.45444869995117 L 21.0624942779541 -2.815652847290039 L 22.66223335266113 -5.499992847442627 L 25.78711318969727 -5.499992847442627 L 77.36135101318359 -5.499992847442627 L 80.48623657226562 -5.499992847442627 L 82.08597564697266 -2.815652847290039 L 107.8730926513672 40.45444869995117 L 109.5511169433594 43.27010726928711 L 107.8730926513672 46.08576583862305 L 82.08597564697266 89.35586547851562 L 80.48623657226562 92.04020690917969 Z" stroke="none"/><path d="M 25.78711700439453 -1.52587890625e-05 L -7.62939453125e-06 43.27010726928711 L 25.78711700439453 86.54019927978516 L 77.36135101318359 86.54019927978516 L 103.1484756469727 43.27010726928711 L 77.36135101318359 -1.52587890625e-05 L 25.78711700439453 -1.52587890625e-05 M 25.78711700439453 -11.00001525878906 L 77.36135101318359 -11.00001525878906 C 81.23692321777344 -11.00001525878906 84.82652282714844 -8.960533142089844 86.81059265136719 -5.63134765625 L 112.5977096557617 37.63877487182617 C 114.665397644043 41.10829925537109 114.665397644043 45.43191528320312 112.5977096557617 48.90143966674805 L 86.81059265136719 92.17153930664062 C 84.82652282714844 95.50074768066406 81.23692321777344 97.54019927978516 77.36135101318359 97.54019927978516 L 25.78711700439453 97.54019927978516 C 21.91154479980469 97.54019927978516 18.32194519042969 95.50074768066406 16.33787536621094 92.17153930664062 L -9.449241638183594 48.90143966674805 C -11.51692962646484 45.43191528320312 -11.51692962646484 41.10829925537109 -9.449241638183594 37.63877487182617 L 16.33787536621094 -5.63134765625 C 18.32194519042969 -8.960533142089844 21.91154479980469 -11.00001525878906 25.78711700439453 -11.00001525878906 Z" stroke="none" fill="#ffa700"/></g><g transform="translate(0 0)" clip-path="url(#a)"><path d="M47.6,0C71.827,0,83.061,17.048,83.061,42.609c0,11.17-7.245,34.869-24.745,41.17-22,7.922-55.528,0-55.528,0S-2.571,68.436,1.57,44.569,23.373,0,47.6,0Z" transform="translate(24.917 3.283)" fill="#ffc62a"/></g><g transform="translate(0 0)" clip-path="url(#b)"><path d="M47.6,0C71.827,0,83.061,17.048,83.061,42.609c0,11.17-7.245,34.869-24.745,41.17-22,7.922-55.528,0-55.528,0S-2.571,68.436,1.57,44.569,23.373,0,47.6,0Z" transform="translate(24.917 3.283)" fill="rgba(255,179,0,0.62)"/></g></g><g transform="translate(-12513.438 -7430.162)"><path d="M36.321-1404.973v10.594a1.454,1.454,0,0,1-.449,1.064,1.454,1.454,0,0,1-1.064.449H24.214a1.414,1.414,0,0,1-1.4-.946,1.344,1.344,0,0,1,.331-1.632l3.263-3.263a11.748,11.748,0,0,0-8.253-3.24,11.791,11.791,0,0,0-4.694.958A12.2,12.2,0,0,0,9.6-1398.4a12.2,12.2,0,0,0-2.589,3.866,11.793,11.793,0,0,0-.958,4.694,11.792,11.792,0,0,0,.958,4.694A12.2,12.2,0,0,0,9.6-1381.28a12.2,12.2,0,0,0,3.866,2.589,11.791,11.791,0,0,0,4.694.958,11.817,11.817,0,0,0,7.188-2.353,11.812,11.812,0,0,0,4.375-6.184.686.686,0,0,1,.709-.544h4.706a.7.7,0,0,1,.591.284.753.753,0,0,1,.166.638,18.042,18.042,0,0,1-3.488,7.378,17.779,17.779,0,0,1-6.29,5.036,18.071,18.071,0,0,1-7.957,1.8,17.67,17.67,0,0,1-7.047-1.443A18.322,18.322,0,0,1,5.32-1377a18.327,18.327,0,0,1-3.878-5.794A17.668,17.668,0,0,1,0-1389.84a17.67,17.67,0,0,1,1.442-7.047,18.324,18.324,0,0,1,3.878-5.793,18.327,18.327,0,0,1,5.793-3.878A17.672,17.672,0,0,1,18.16-1408a17.814,17.814,0,0,1,6.727,1.312,18.358,18.358,0,0,1,5.782,3.7l3.074-3.05a1.365,1.365,0,0,1,1.655-.331A1.414,1.414,0,0,1,36.321-1404.973Z" transform="translate(0 0)" fill="#795303" stroke="#795303" stroke-width="2"/></g></g></svg>