<svg xmlns="http://www.w3.org/2000/svg" xmlns:xlink="http://www.w3.org/1999/xlink" width="125.148" height="108.54" viewBox="0 0 125.148 108.54"><defs><clipPath id="a"><path d="M77.361,0l25.787,43.27L77.361,86.54H25.787L0,43.27,25.787,0Z" transform="translate(0 0)" fill="#ffc62a"/></clipPath><clipPath id="b"><path d="M77.361,0l25.787,43.27L77.361,86.54H25.787L0,43.27,25.787,0Z" transform="translate(0 0)" fill="rgba(255,179,0,0.62)"/></clipPath></defs><g transform="translate(11133.148 12418.158)"><g transform="translate(-11122.148 -12407.158)"><g transform="translate(0 0)" fill="#ffc62c" stroke-linecap="round" stroke-linejoin="round"><path d="M 80.48623657226562 92.04020690917969 L 77.36135101318359 92.04020690917969 L 25.78711318969727 92.04020690917969 L 22.66223335266113 92.04020690917969 L 21.0624942779541 89.35586547851562 L -4.724626064300537 46.08576583862305 L -6.402646064758301 43.27010726928711 L -4.724626064300537 40.45444869995117 L 21.0624942779541 -2.815652847290039 L 22.66223335266113 -5.499992847442627 L 25.78711318969727 -5.499992847442627 L 77.36135101318359 -5.499992847442627 L 80.48623657226562 -5.499992847442627 L 82.08597564697266 -2.815652847290039 L 107.8730926513672 40.45444869995117 L 109.5511169433594 43.27010726928711 L 107.8730926513672 46.08576583862305 L 82.08597564697266 89.35586547851562 L 80.48623657226562 92.04020690917969 Z" stroke="none"/><path d="M 25.78711700439453 -1.52587890625e-05 L -7.62939453125e-06 43.27010726928711 L 25.78711700439453 86.54019927978516 L 77.36135101318359 86.54019927978516 L 103.1484756469727 43.27010726928711 L 77.36135101318359 -1.52587890625e-05 L 25.78711700439453 -1.52587890625e-05 M 25.78711700439453 -11.00001525878906 L 77.36135101318359 -11.00001525878906 C 81.23692321777344 -11.00001525878906 84.82652282714844 -8.960533142089844 86.81059265136719 -5.63134765625 L 112.5977096557617 37.63877487182617 C 114.665397644043 41.10829925537109 114.665397644043 45.43191528320312 112.5977096557617 48.90143966674805 L 86.81059265136719 92.17153930664062 C 84.82652282714844 95.50074768066406 81.23692321777344 97.54019927978516 77.36135101318359 97.54019927978516 L 25.78711700439453 97.54019927978516 C 21.91154479980469 97.54019927978516 18.32194519042969 95.50074768066406 16.33787536621094 92.17153930664062 L -9.449241638183594 48.90143966674805 C -11.51692962646484 45.43191528320312 -11.51692962646484 41.10829925537109 -9.449241638183594 37.63877487182617 L 16.33787536621094 -5.63134765625 C 18.32194519042969 -8.960533142089844 21.91154479980469 -11.00001525878906 25.78711700439453 -11.00001525878906 Z" stroke="none" fill="#ffa700"/></g><g transform="translate(0 0)" clip-path="url(#a)"><path d="M47.6,0C71.827,0,83.061,17.048,83.061,42.609c0,11.17-7.245,34.869-24.745,41.17-22,7.922-55.528,0-55.528,0S-2.571,68.436,1.57,44.569,23.373,0,47.6,0Z" transform="translate(24.917 3.283)" fill="#ffc62a"/></g><g transform="translate(0 0)" clip-path="url(#b)"><path d="M47.6,0C71.827,0,83.061,17.048,83.061,42.609c0,11.17-7.245,34.869-24.745,41.17-22,7.922-55.528,0-55.528,0S-2.571,68.436,1.57,44.569,23.373,0,47.6,0Z" transform="translate(24.917 3.283)" fill="rgba(255,179,0,0.62)"/></g></g><g transform="translate(-12793.821 -12458.629)"><line x2="27.099" transform="translate(1709.569 75.566)" fill="none" stroke="#795303" stroke-linecap="round" stroke-linejoin="round" stroke-miterlimit="10" stroke-width="4"/><path d="M15,31h3.406S28.626,20.873,28.626,10.749V4H15Z" transform="translate(1708.12 71.399)" fill="#795303" stroke="#795303" stroke-linecap="round" stroke-linejoin="round" stroke-miterlimit="10" stroke-width="4"/><path d="M26.873,28.749H10V25.375A3.374,3.374,0,0,1,13.375,22H23.5a3.374,3.374,0,0,1,3.375,3.375Z" transform="translate(1704.81 85.332)" fill="#795303" stroke="#795303" stroke-linecap="round" stroke-linejoin="round" stroke-miterlimit="10" stroke-width="4"/><line x2="19.524" transform="translate(1713.543 114.081)" fill="none" stroke="#795303" stroke-linecap="round" stroke-linejoin="round" stroke-miterlimit="10" stroke-width="4"/><path d="M23.749,14.749S25.436,8,29.654,8a4.218,4.218,0,0,1,4.218,4.218C33.873,18.124,17,23.185,17,23.185" transform="translate(1709.621 74.148)" fill="none" stroke="#795303" stroke-linecap="round" stroke-linejoin="round" stroke-miterlimit="10" stroke-width="4"/><path d="M20.5,31H17.124S7,20.873,7,10.749V4H20.5Z" transform="translate(1702.749 71.399)" fill="#795303" stroke="#795303" stroke-linecap="round" stroke-linejoin="round" stroke-miterlimit="10" stroke-width="4"/><path d="M13.124,14.749S11.436,8,7.218,8A4.218,4.218,0,0,0,3,12.218c0,5.905,16.873,10.967,16.873,10.967" transform="translate(1700 74.148)" fill="none" stroke="#795303" stroke-linecap="round" stroke-linejoin="round" stroke-miterlimit="10" stroke-width="4"/><path d="M0,0H2.464V27.1H0Z" transform="translate(1721.888 75.566)" fill="#795303"/></g></g></svg>