<svg xmlns="http://www.w3.org/2000/svg" xmlns:xlink="http://www.w3.org/1999/xlink" width="442.534" height="260.46" viewBox="0 0 442.534 260.46"><defs><linearGradient id="a" x1="0.763" y1="0.378" x2="0.124" y2="0.971" gradientUnits="objectBoundingBox"><stop offset="0" stop-color="#ffba10" stop-opacity="0"/><stop offset="1" stop-color="#ffba10"/></linearGradient><linearGradient id="b" x1="0.5" x2="0.447" y2="0.858" gradientUnits="objectBoundingBox"><stop offset="0" stop-color="#ffa700" stop-opacity="0"/><stop offset="1" stop-color="#ffa700"/></linearGradient><linearGradient id="c" x1="0.127" y1="0.123" x2="0.638" y2="0.83" gradientUnits="objectBoundingBox"><stop offset="0" stop-color="#ffba10"/><stop offset="1" stop-color="#ffba10" stop-opacity="0"/></linearGradient><linearGradient id="d" x1="0.785" y1="0.334" x2="0.059" y2="0.923" xlink:href="#b"/><linearGradient id="e" x1="0.198" y1="0.313" x2="0.842" y2="0.951" xlink:href="#b"/><clipPath id="f"><path d="M97.393,0l32.464,54.474L97.393,108.949H32.464L0,54.474,32.464,0Z" transform="translate(0 0)" fill="#ffc62a"/></clipPath><clipPath id="g"><path d="M97.393,0l32.464,54.474L97.393,108.949H32.464L0,54.474,32.464,0Z" transform="translate(0 0)" fill="rgba(255,179,0,0.62)"/></clipPath><filter id="h" x="133.356" y="177.845" width="85.142" height="82.615" filterUnits="userSpaceOnUse"><feOffset dy="3" input="SourceAlpha"/><feGaussianBlur stdDeviation="0.5" result="i"/><feFlood flood-opacity="0.11"/><feComposite operator="in" in2="i"/><feComposite in="SourceGraphic"/></filter><clipPath id="j"><path d="M40.722,0,54.3,22.776,40.722,45.553H13.574L0,22.776,13.574,0Z" transform="translate(54.296 45.554) rotate(180)" fill="#ffc62a"/></clipPath><clipPath id="k"><path d="M40.722,0,54.3,22.776,40.722,45.553H13.574L0,22.776,13.574,0Z" transform="translate(54.296 45.554) rotate(180)" fill="rgba(255,179,0,0.62)"/></clipPath><filter id="l" x="245.857" y="152.081" width="82.141" height="81.115" filterUnits="userSpaceOnUse"><feOffset dy="3" input="SourceAlpha"/><feGaussianBlur result="m"/><feFlood flood-opacity="0.09"/><feComposite operator="in" in2="m"/><feComposite in="SourceGraphic"/></filter><clipPath id="n"><path d="M40.722,0,54.3,22.776,40.722,45.552H13.574L0,22.776,13.574,0Z" transform="translate(0 0)" fill="#ffc62a"/></clipPath><clipPath id="o"><path d="M40.722,0,54.3,22.776,40.722,45.552H13.574L0,22.776,13.574,0Z" transform="translate(0 0)" fill="rgba(255,179,0,0.62)"/></clipPath><filter id="p" x="225.694" y="204.488" width="47.915" height="45.912" filterUnits="userSpaceOnUse"><feOffset dy="1" input="SourceAlpha"/><feGaussianBlur stdDeviation="0.5" result="q"/><feFlood flood-opacity="0.122"/><feComposite operator="in" in2="q"/><feComposite in="SourceGraphic"/></filter><clipPath id="r"><path d="M20.262,0l6.754,11.333L20.262,22.665H6.754L0,11.333,6.754,0Z" fill="#ffc62a"/></clipPath><clipPath id="s"><path d="M20.262,0l6.754,11.333L20.262,22.665H6.754L0,11.333,6.754,0Z" fill="rgba(255,179,0,0.62)"/></clipPath></defs><g transform="translate(6119.267 10836.632)"><path d="M49.447-13.232l91.061,44.151L24.693,139.877,0,125.478Z" transform="translate(-5875.622 -10811.94)" opacity="0.81" fill="url(#a)"/><path d="M-37.762,0H109.847L56.671,150.17H6.541Z" transform="translate(-5931.438 -10836.632)" opacity="0.81" fill="url(#b)"/><path d="M49.447,153.109l91.061-44.151L24.693,0,0,14.4Z" transform="matrix(-0.999, -0.052, 0.052, -0.999, -5922.993, -10664.92)" opacity="0.81" fill="url(#c)"/><path d="M109.866,7.252l70.6,83.43L9.02,136.365l-11-22Z" transform="translate(-5857.194 -10779.062)" opacity="0.81" fill="url(#d)"/><path d="M63.921,7.252l-70.6,83.43,155.425,45.646,25.82-13.715Z" transform="translate(-6112.593 -10779.062)" opacity="0.81" fill="url(#e)"/><g transform="translate(-853.926 2065)"><g transform="translate(5854.96 -386.52)"><g transform="translate(-10968.96 -12407.158)"><g transform="translate(0 0)" fill="#ffc62c" stroke-linecap="round" stroke-linejoin="round"><path d="M 100.5179748535156 114.4486999511719 L 97.39310455322266 114.4486999511719 L 32.46436309814453 114.4486999511719 L 29.3394947052002 114.4486999511719 L 27.73975563049316 111.7643737792969 L -4.724614143371582 57.2900276184082 L -6.40263557434082 54.4743537902832 L -4.724614143371582 51.6586799621582 L 27.73977661132812 -2.815667867660522 L 29.33951568603516 -5.499993801116943 L 32.46438598632812 -5.499993801116943 L 97.39310455322266 -5.499993801116943 L 100.5179748535156 -5.499993801116943 L 102.1177139282227 -2.815667867660522 L 134.5820770263672 51.6586799621582 L 136.2601013183594 54.4743537902832 L 134.5820770263672 57.2900276184082 L 102.1177139282227 111.7643737792969 L 100.5179748535156 114.4486999511719 Z" stroke="none"/><path d="M 32.46437072753906 -7.62939453125e-06 L -1.52587890625e-05 54.4743537902832 L 32.46437072753906 108.9487152099609 L 97.39309692382812 108.9487152099609 L 129.8574523925781 54.4743537902832 L 97.39309692382812 -7.62939453125e-06 L 32.46437072753906 -7.62939453125e-06 M 32.46437072753906 -11.00000762939453 L 97.39309692382812 -11.00000762939453 C 101.2686767578125 -11.00000762939453 104.8582611083984 -8.960533142089844 106.8423156738281 -5.631340026855469 L 139.3066711425781 48.84302139282227 C 141.3743743896484 52.31254959106445 141.3743743896484 56.63615798950195 139.3066711425781 60.10568618774414 L 106.8423156738281 114.5800476074219 C 104.8582611083984 117.9092407226562 101.2686767578125 119.9487152099609 97.39309692382812 119.9487152099609 L 32.46437072753906 119.9487152099609 C 28.58879089355469 119.9487152099609 24.99920654296875 117.9092407226562 23.01515197753906 114.5800476074219 L -9.449234008789062 60.10568618774414 C -11.51693725585938 56.63615798950195 -11.51693725585938 52.31254959106445 -9.449234008789062 48.84302139282227 L 23.01515197753906 -5.631340026855469 C 24.99920654296875 -8.960533142089844 28.58879089355469 -11.00000762939453 32.46437072753906 -11.00000762939453 Z" stroke="none" fill="#ffa700"/></g><g transform="translate(0 0)" clip-path="url(#f)"><path d="M59.925,0c30.5,0,44.643,21.463,44.643,53.642,0,14.063-9.121,43.9-31.152,51.83-27.7,9.973-69.906,0-69.906,0S-3.236,86.157,1.977,56.109,29.425,0,59.925,0Z" transform="translate(31.369 4.133)" fill="#ffc62a"/></g><g transform="translate(0 0)" clip-path="url(#g)"><path d="M59.925,0c30.5,0,44.643,21.463,44.643,53.642,0,14.063-9.121,43.9-31.152,51.83-27.7,9.973-69.906,0-69.906,0S-3.236,86.157,1.977,56.109,29.425,0,59.925,0Z" transform="translate(31.369 4.133)" fill="rgba(255,179,0,0.62)"/></g></g></g><text transform="translate(-5098.594 -12714)" fill="#707070" font-size="81" font-family="SegoeUIEmoji, Segoe UI Emoji"><tspan x="0" y="0">🍯</tspan></text></g><g transform="matrix(-0.899, 0.438, -0.438, -0.899, -5908.955, -10611.158)"><g transform="translate(0 0)"><g transform="matrix(-0.9, -0.44, 0.44, -0.9, 90.19, 294.85)" filter="url(#h)"><g transform="matrix(0.9, -0.44, 0.44, 0.9, 141.54, 208.33)" fill="#ffc62c" stroke-linecap="round" stroke-linejoin="round"><path d="M 42.14229965209961 48.0526008605957 L 40.72192001342773 48.0526008605957 L 13.57397079467773 48.0526008605957 L 12.15359115600586 48.0526008605957 L 11.42643070220947 46.83247375488281 L -2.147538900375366 24.05617141723633 L -2.910298824310303 22.77630233764648 L -2.147538900375366 21.49643325805664 L 11.42644119262695 -1.279867649078369 L 12.15360069274902 -2.499997615814209 L 13.57398128509521 -2.499997615814209 L 40.72192001342773 -2.499997615814209 L 42.14229965209961 -2.499997615814209 L 42.86946105957031 -1.279867649078369 L 56.44343948364258 21.49643325805664 L 57.20619964599609 22.77630233764648 L 56.44343948364258 24.05617141723633 L 42.86946105957031 46.83247375488281 L 42.14229965209961 48.0526008605957 Z" stroke="none"/><path d="M 13.573974609375 -3.814697265625e-06 L 0 22.77630233764648 L 13.573974609375 45.55260848999023 L 40.72192764282227 45.55260848999023 L 54.29590225219727 22.77630233764648 L 40.72192764282227 -3.814697265625e-06 L 13.573974609375 -3.814697265625e-06 M 13.573974609375 -5.000003814697266 L 40.72192764282227 -5.000003814697266 C 42.48353958129883 -5.000003814697266 44.11516189575195 -4.072990417480469 45.01700973510742 -2.559745788574219 L 58.59098815917969 20.21656036376953 C 59.53087997436523 21.79364395141602 59.53087997436523 23.75896072387695 58.59098815917969 25.33604431152344 L 45.01700973510742 48.11235046386719 C 44.11516189575195 49.62559509277344 42.48353958129883 50.55260848999023 40.72192764282227 50.55260848999023 L 13.573974609375 50.55260848999023 C 11.81236267089844 50.55260848999023 10.18074035644531 49.62559509277344 9.278892517089844 48.11235046386719 L -4.295085906982422 25.33604431152344 C -5.234977722167969 23.75896072387695 -5.234977722167969 21.79364395141602 -4.295085906982422 20.21656036376953 L 9.278892517089844 -2.559745788574219 C 10.18074035644531 -4.072990417480469 11.81236267089844 -5.000003814697266 13.573974609375 -5.000003814697266 Z" stroke="none" fill="#ffa700"/></g></g><g transform="translate(0 0)" clip-path="url(#j)"><path d="M25.056,45.954c12.753,0,18.666-8.974,18.666-22.428,0-5.88-3.814-18.355-13.026-21.671-11.581-4.17-29.229,0-29.229,0S-1.354,9.93.826,22.493,12.3,45.954,25.056,45.954Z" transform="translate(13.116 -2.128)" fill="#ffc62a"/></g><g transform="translate(0 0)" clip-path="url(#k)"><path d="M25.056,45.954c12.753,0,18.666-8.974,18.666-22.428,0-5.88-3.814-18.355-13.026-21.671-11.581-4.17-29.229,0-29.229,0S-1.354,9.93.826,22.493,12.3,45.954,25.056,45.954Z" transform="translate(13.116 -2.128)" fill="rgba(255,179,0,0.62)"/></g></g></g><g transform="matrix(0.899, 0.438, -0.438, 0.899, -5846.755, -10677.865)"><g transform="translate(0 0)"><g transform="matrix(0.9, -0.44, 0.44, 0.9, -314.53, -23.24)" filter="url(#l)"><g transform="matrix(0.9, 0.44, -0.44, 0.9, 272.51, 158.77)" fill="#ffc62c" stroke-linecap="round" stroke-linejoin="round"><path d="M 42.14213562011719 48.05248260498047 L 40.72175598144531 48.05248260498047 L 13.57391452789307 48.05248260498047 L 12.15353488922119 48.05248260498047 L 11.4263744354248 46.83235168457031 L -2.14753532409668 24.05611038208008 L -2.910295248031616 22.77624130249023 L -2.14753532409668 21.49637222290039 L 11.42638492584229 -1.279868721961975 L 12.15354442596436 -2.499998807907104 L 13.57392501831055 -2.499998807907104 L 40.72175598144531 -2.499998807907104 L 42.14213562011719 -2.499998807907104 L 42.86929321289062 -1.279868721961975 L 56.44321441650391 21.49637222290039 L 57.20597457885742 22.77624130249023 L 56.44321441650391 24.05611038208008 L 42.86929321289062 46.83235168457031 L 42.14213562011719 48.05248260498047 Z" stroke="none"/><path d="M 13.57391738891602 -7.62939453125e-06 L 0 22.77624130249023 L 13.57391738891602 45.55247497558594 L 40.72175216674805 45.55247497558594 L 54.29566955566406 22.77624130249023 L 40.72175216674805 -7.62939453125e-06 L 13.57391738891602 -7.62939453125e-06 M 13.57391738891602 -5.000007629394531 L 40.72175216674805 -5.000007629394531 C 42.48336410522461 -5.000007629394531 44.11498641967773 -4.072994232177734 45.0168342590332 -2.559734344482422 L 58.59075164794922 20.21651268005371 C 59.53064727783203 21.79358291625977 59.53064727783203 23.7588996887207 58.59075164794922 25.33596992492676 L 45.0168342590332 48.11220550537109 C 44.11498641967773 49.62546539306641 42.48336410522461 50.55247497558594 40.72175216674805 50.55247497558594 L 13.57391738891602 50.55247497558594 C 11.81230545043945 50.55247497558594 10.18068313598633 49.62546539306641 9.278835296630859 48.11220550537109 L -4.295082092285156 25.33596992492676 C -5.234977722167969 23.7588996887207 -5.234977722167969 21.79358291625977 -4.295082092285156 20.21651268005371 L 9.278835296630859 -2.559734344482422 C 10.18068313598633 -4.072994232177734 11.81230545043945 -5.000007629394531 13.57391738891602 -5.000007629394531 Z" stroke="none" fill="#ffa700"/></g></g><g transform="translate(0 0)" clip-path="url(#n)"><path d="M25.056,0C37.809,0,43.722,8.974,43.722,22.429c0,5.88-3.814,18.355-13.026,21.671-11.581,4.17-29.229,0-29.229,0s-2.821-8.076-.641-20.64S12.3,0,25.056,0Z" transform="translate(13.116 1.728)" fill="#ffc62a"/></g><g transform="translate(0 0)" clip-path="url(#o)"><path d="M25.056,0C37.809,0,43.722,8.974,43.722,22.429c0,5.88-3.814,18.355-13.026,21.671-11.581,4.17-29.229,0-29.229,0s-2.821-8.076-.641-20.64S12.3,0,25.056,0Z" transform="translate(13.116 1.728)" fill="rgba(255,179,0,0.62)"/></g></g></g><g transform="matrix(0.899, 0.438, -0.438, 0.899, -5876.789, -10626.295)"><g transform="translate(0 0)"><g transform="matrix(0.9, -0.44, 0.44, 0.9, -310.14, -82.75)" filter="url(#p)"><g transform="matrix(0.9, 0.44, -0.44, 0.9, 242.48, 210.34)" fill="#ffc62c" stroke-linecap="round" stroke-linejoin="round"><path d="M 21.39810752868652 24.66541481018066 L 20.26179695129395 24.66541481018066 L 6.753936767578125 24.66541481018066 L 5.617626667022705 24.66541481018066 L 5.035906791687012 23.68930625915527 L -1.718033194541931 12.35659503936768 L -2.328243255615234 11.3327054977417 L -1.718033194541931 10.30880546569824 L 5.035906791687012 -1.023894548416138 L 5.617636680603027 -1.999994516372681 L 6.753936767578125 -1.999994516372681 L 20.26179695129395 -1.999994516372681 L 21.39809608459473 -1.999994516372681 L 21.97982597351074 -1.023894548416138 L 28.73376655578613 10.30880546569824 L 29.3439769744873 11.3327054977417 L 28.73376655578613 12.35659503936768 L 21.97982597351074 23.68930625915527 L 21.39810752868652 24.66541481018066 Z" stroke="none"/><path d="M 6.753936767578125 -3.814697265625e-06 L -3.814697265625e-06 11.3327054977417 L 6.753936767578125 22.6654052734375 L 20.26179695129395 22.6654052734375 L 27.01573753356934 11.3327054977417 L 20.26179695129395 -3.814697265625e-06 L 6.753936767578125 -3.814697265625e-06 M 6.753936767578125 -4.000003814697266 L 20.26179695129395 -4.000003814697266 C 21.67108726501465 -4.000003814697266 22.97638702392578 -3.258394241333008 23.69786643981934 -2.047794342041016 L 30.45180702209473 9.284915924072266 C 31.20371627807617 10.54657554626465 31.20371627807617 12.11883544921875 30.45180702209473 13.38049507141113 L 23.69786643981934 24.71319580078125 C 22.97638702392578 25.92379570007324 21.67108726501465 26.6654052734375 20.26179695129395 26.6654052734375 L 6.753936767578125 26.6654052734375 C 5.344646453857422 26.6654052734375 4.039346694946289 25.92379570007324 3.317867279052734 24.71319580078125 L -3.436073303222656 13.38049507141113 C -4.187982559204102 12.11883544921875 -4.187982559204102 10.54657554626465 -3.436073303222656 9.284915924072266 L 3.317867279052734 -2.047794342041016 C 4.039346694946289 -3.258394241333008 5.344646453857422 -4.000003814697266 6.753936767578125 -4.000003814697266 Z" stroke="none" fill="#ffa700"/></g></g><g transform="translate(0 0)" clip-path="url(#r)"><path d="M12.467,0c6.345,0,9.288,4.465,9.288,11.16,0,2.926-1.9,9.133-6.481,10.783-5.762,2.075-14.543,0-14.543,0a22.227,22.227,0,0,1-.319-10.27C1.5,5.422,6.122,0,12.467,0Z" transform="translate(6.526 0.86)" fill="#ffc62a"/></g><g transform="translate(0 0)" clip-path="url(#s)"><path d="M12.467,0c6.345,0,9.288,4.465,9.288,11.16,0,2.926-1.9,9.133-6.481,10.783-5.762,2.075-14.543,0-14.543,0a22.227,22.227,0,0,1-.319-10.27C1.5,5.422,6.122,0,12.467,0Z" transform="translate(6.526 0.86)" fill="rgba(255,179,0,0.62)"/></g></g></g></g></svg>