<svg xmlns="http://www.w3.org/2000/svg" xmlns:xlink="http://www.w3.org/1999/xlink" width="125.148" height="108.54" viewBox="0 0 125.148 108.54"><defs><clipPath id="a"><path d="M77.361,0l25.787,43.27L77.361,86.54H25.787L0,43.27,25.787,0Z" transform="translate(0 0)" fill="#ffc62a"/></clipPath><clipPath id="b"><path d="M77.361,0l25.787,43.27L77.361,86.54H25.787L0,43.27,25.787,0Z" transform="translate(0 0)" fill="rgba(255,179,0,0.62)"/></clipPath></defs><g transform="translate(10979.96 12418.158)"><g transform="translate(-10968.96 -12407.158)"><g transform="translate(0 0)" fill="#ffc62c" stroke-linecap="round" stroke-linejoin="round"><path d="M 80.48623657226562 92.04020690917969 L 77.36135101318359 92.04020690917969 L 25.78711318969727 92.04020690917969 L 22.66223335266113 92.04020690917969 L 21.0624942779541 89.35586547851562 L -4.724626064300537 46.08576583862305 L -6.402646064758301 43.27010726928711 L -4.724626064300537 40.45444869995117 L 21.0624942779541 -2.815652847290039 L 22.66223335266113 -5.499992847442627 L 25.78711318969727 -5.499992847442627 L 77.36135101318359 -5.499992847442627 L 80.48623657226562 -5.499992847442627 L 82.08597564697266 -2.815652847290039 L 107.8730926513672 40.45444869995117 L 109.5511169433594 43.27010726928711 L 107.8730926513672 46.08576583862305 L 82.08597564697266 89.35586547851562 L 80.48623657226562 92.04020690917969 Z" stroke="none"/><path d="M 25.78711700439453 -1.52587890625e-05 L -7.62939453125e-06 43.27010726928711 L 25.78711700439453 86.54019927978516 L 77.36135101318359 86.54019927978516 L 103.1484756469727 43.27010726928711 L 77.36135101318359 -1.52587890625e-05 L 25.78711700439453 -1.52587890625e-05 M 25.78711700439453 -11.00001525878906 L 77.36135101318359 -11.00001525878906 C 81.23692321777344 -11.00001525878906 84.82652282714844 -8.960533142089844 86.81059265136719 -5.63134765625 L 112.5977096557617 37.63877487182617 C 114.665397644043 41.10829925537109 114.665397644043 45.43191528320312 112.5977096557617 48.90143966674805 L 86.81059265136719 92.17153930664062 C 84.82652282714844 95.50074768066406 81.23692321777344 97.54019927978516 77.36135101318359 97.54019927978516 L 25.78711700439453 97.54019927978516 C 21.91154479980469 97.54019927978516 18.32194519042969 95.50074768066406 16.33787536621094 92.17153930664062 L -9.449241638183594 48.90143966674805 C -11.51692962646484 45.43191528320312 -11.51692962646484 41.10829925537109 -9.449241638183594 37.63877487182617 L 16.33787536621094 -5.63134765625 C 18.32194519042969 -8.960533142089844 21.91154479980469 -11.00001525878906 25.78711700439453 -11.00001525878906 Z" stroke="none" fill="#ffa700"/></g><g transform="translate(0 0)" clip-path="url(#a)"><path d="M47.6,0C71.827,0,83.061,17.048,83.061,42.609c0,11.17-7.245,34.869-24.745,41.17-22,7.922-55.528,0-55.528,0S-2.571,68.436,1.57,44.569,23.373,0,47.6,0Z" transform="translate(24.917 3.283)" fill="#ffc62a"/></g><g transform="translate(0 0)" clip-path="url(#b)"><path d="M47.6,0C71.827,0,83.061,17.048,83.061,42.609c0,11.17-7.245,34.869-24.745,41.17-22,7.922-55.528,0-55.528,0S-2.571,68.436,1.57,44.569,23.373,0,47.6,0Z" transform="translate(24.917 3.283)" fill="rgba(255,179,0,0.62)"/></g></g><g transform="translate(-10942.526 -12389.029)"><path d="M0,0H50.281V50.281H0Z" fill="none"/><path d="M40.491,26.993a16.445,16.445,0,0,0,.147-2.043,16.446,16.446,0,0,0-.147-2.043l4.431-3.467a1.045,1.045,0,0,0,.251-1.341l-4.19-7.259a1.036,1.036,0,0,0-1.278-.45L34.488,12.5a15.9,15.9,0,0,0-3.541-2.064L30.162,4.88A1.077,1.077,0,0,0,29.115,4h-8.38a1.058,1.058,0,0,0-1.037.88l-.786,5.552A15.5,15.5,0,0,0,15.371,12.5L10.154,10.39a1.048,1.048,0,0,0-1.278.45L4.686,18.1a1.049,1.049,0,0,0,.251,1.341l4.421,3.467a16.446,16.446,0,0,0-.147,2.043,16.446,16.446,0,0,0,.147,2.043L4.938,30.461A1.045,1.045,0,0,0,4.686,31.8l4.19,7.259a1.036,1.036,0,0,0,1.278.45l5.217-2.106a15.9,15.9,0,0,0,3.541,2.064l.786,5.552a1.058,1.058,0,0,0,1.037.88h8.38a1.058,1.058,0,0,0,1.037-.88l.786-5.552a15.5,15.5,0,0,0,3.541-2.064l5.217,2.106a1.048,1.048,0,0,0,1.278-.45l4.19-7.259a1.049,1.049,0,0,0-.251-1.341Zm-15.566,5.29a7.333,7.333,0,1,1,7.333-7.333A7.327,7.327,0,0,1,24.925,32.283Z" transform="translate(0.216 0.19)" fill="#795303"/></g></g></svg>