<svg xmlns="http://www.w3.org/2000/svg" width="58.597" height="58.597" viewBox="0 0 58.597 58.597"><path d="M0,0H58.6V58.6H0Z" fill="none"/><path d="M46.435,30.8a19.165,19.165,0,0,0,.171-2.38,19.166,19.166,0,0,0-.171-2.38L51.6,21.994a1.217,1.217,0,0,0,.293-1.563l-4.883-8.46a1.208,1.208,0,0,0-1.489-.525L39.44,13.9a18.526,18.526,0,0,0-4.126-2.4L34.4,5.025A1.256,1.256,0,0,0,33.178,4H23.412A1.233,1.233,0,0,0,22.2,5.025l-.916,6.47a18.067,18.067,0,0,0-4.126,2.4l-6.079-2.454a1.221,1.221,0,0,0-1.489.525L4.71,20.431A1.223,1.223,0,0,0,5,21.994l5.152,4.041a19.165,19.165,0,0,0-.171,2.38,19.165,19.165,0,0,0,.171,2.38L5,34.837A1.217,1.217,0,0,0,4.71,36.4l4.883,8.46a1.208,1.208,0,0,0,1.489.525l6.079-2.454a18.526,18.526,0,0,0,4.126,2.4l.916,6.47a1.233,1.233,0,0,0,1.209,1.025h9.766a1.233,1.233,0,0,0,1.209-1.025l.916-6.47a18.067,18.067,0,0,0,4.126-2.4l6.079,2.454A1.221,1.221,0,0,0,47,44.859L51.88,36.4a1.223,1.223,0,0,0-.293-1.563ZM28.295,36.961a8.545,8.545,0,1,1,8.545-8.545A8.539,8.539,0,0,1,28.295,36.961Z" transform="translate(1.004 0.883)" fill="#543700"/></svg>